<?xml version="1.0" standalone="no"?>
<!DOCTYPE svg PUBLIC "-//W3C//DTD SVG 20010904//EN"
 "http://www.w3.org/TR/2001/REC-SVG-20010904/DTD/svg10.dtd">
<svg version="1.0" xmlns="http://www.w3.org/2000/svg"
 width="378.000000pt" height="378.000000pt" viewBox="0 0 378.000000 378.000000"
 preserveAspectRatio="xMidYMid meet">

<g transform="translate(0.000000,378.000000) scale(0.100000,-0.100000)"
fill="#000000" stroke="none">
<path d="M0 1890 l0 -1890 1890 0 1890 0 0 1723 0 1722 -21 14 c-26 15 -142
24 -337 25 -124 1 -143 3 -148 18 -3 9 -18 19 -34 23 -16 3 -49 25 -75 47 -25
22 -47 39 -48 37 -2 -2 -7 -17 -13 -34 -7 -22 -19 -32 -45 -40 -20 -5 -43 -16
-52 -23 -9 -8 -39 -12 -78 -11 -106 4 -142 -5 -150 -34 -4 -14 -5 -28 -3 -30
6 -6 13 -42 20 -107 4 -30 13 -68 21 -84 14 -26 14 -28 -2 -22 -9 3 -38 6 -63
7 -41 0 -44 2 -23 10 14 5 34 8 45 7 13 -2 20 2 18 10 -1 7 -4 25 -5 40 -2 15
-6 32 -9 37 -3 6 -6 28 -7 50 -1 22 -3 49 -4 60 -1 11 2 47 6 80 6 51 4 69
-18 120 -13 33 -25 77 -25 98 l0 37 -307 0 c-248 -1 -313 -3 -333 -15 -28 -16
-117 -20 -140 -5 -28 17 -40 -9 -40 -85 0 -69 -1 -73 -20 -68 -12 3 -27 18
-35 34 -27 52 -14 99 27 99 11 0 18 7 18 20 0 19 -7 20 -224 20 l-225 0 -3
-22 c-2 -19 -10 -24 -40 -26 -35 -3 -38 -1 -38 22 l0 26 -155 0 c-97 0 -155
-4 -155 -10 0 -5 5 -10 11 -10 8 0 8 -4 -1 -14 -15 -19 -40 -9 -40 15 0 18
-16 19 -515 19 l-515 0 0 -1890z m96 1699 c3 -6 2 -15 -2 -19 -12 -12 -38 5
-30 19 9 14 23 14 32 0z m1210 -24 c26 -11 34 -19 30 -31 -3 -8 -6 -19 -6 -23
0 -10 -70 -40 -91 -39 -11 1 -15 8 -11 20 2 10 -1 18 -7 18 -12 0 -15 29 -5
54 8 20 44 20 90 1z m650 -39 c3 -13 4 -35 1 -47 -3 -19 -5 -17 -6 9 0 17 -5
32 -11 32 -5 0 -10 7 -10 15 0 24 19 17 26 -9z m-172 -28 c7 -7 11 -22 8 -34
-9 -47 -92 -57 -92 -12 0 45 54 74 84 46z m216 -120 c0 -13 -5 -9 -31 19 l-24
26 27 -19 c15 -10 28 -22 28 -26z m7 -40 c-3 -8 -6 -5 -6 6 -1 11 2 17 5 13 3
-3 4 -12 1 -19z m10 -40 c-3 -8 -6 -5 -6 6 -1 11 2 17 5 13 3 -3 4 -12 1 -19z
m748 -36 c-3 -3 -11 0 -18 7 -9 10 -8 11 6 5 10 -3 15 -9 12 -12z m-725 -27
c0 -5 -5 -3 -10 5 -5 8 -10 20 -10 25 0 6 5 3 10 -5 5 -8 10 -19 10 -25z m14
-31 c3 -8 2 -12 -4 -9 -6 3 -10 10 -10 16 0 14 7 11 14 -7z m911 -112 c17 -24
74 -52 265 -131 69 -29 140 -58 158 -66 18 -8 39 -15 46 -15 7 0 20 -8 30 -18
9 -11 33 -24 54 -30 20 -7 52 -21 70 -32 30 -19 32 -23 26 -58 -3 -20 -10 -41
-15 -46 -4 -5 -5 1 -2 13 4 15 1 21 -11 21 -9 0 -16 8 -16 18 -1 16 -1 16 -11
-1 -9 -16 -13 -15 -39 13 -15 16 -35 30 -44 30 -9 0 -16 5 -16 10 0 6 -17 18
-37 26 -21 9 -56 24 -78 34 -22 10 -58 26 -80 36 -22 9 -63 32 -92 50 -28 18
-66 37 -85 43 -63 19 -106 37 -123 51 -10 8 -26 14 -36 12 -9 -2 -20 2 -24 8
-4 6 8 9 34 7 22 -2 38 0 35 5 -3 4 -9 8 -14 8 -5 0 -26 12 -47 26 -38 26 -38
27 -8 20 l30 -6 -27 24 c-17 15 -23 26 -15 29 7 2 22 -10 34 -27 12 -17 29
-41 38 -54z m-320 -150 c-3 -3 -11 0 -18 7 -9 10 -8 11 6 5 10 -3 15 -9 12
-12z m272 2 c-3 -3 -12 -4 -19 -1 -8 3 -5 6 6 6 11 1 17 -2 13 -5z m-417 -22
c0 -15 -11 -21 -27 -15 -12 5 -12 7 -1 14 17 11 28 11 28 1z m490 -3 c13 -9
13 -10 0 -6 -8 2 -26 0 -40 -4 -24 -9 -24 -8 -6 6 23 18 26 18 46 4z m-422
-28 c-7 -2 -14 1 -16 8 -2 6 -9 8 -14 5 -7 -4 -8 -2 -4 4 5 9 12 8 27 -1 12
-7 15 -13 7 -16z m488 4 c19 -8 38 -15 42 -16 26 -8 202 -104 243 -134 42 -30
48 -39 39 -51 -7 -7 -22 -14 -34 -14 -25 0 -59 -50 -50 -74 8 -21 54 -33 63
-17 6 9 11 8 21 -4 16 -19 14 -21 -30 -29 -30 -5 -40 -2 -68 23 -17 16 -41 32
-52 36 -11 3 -20 13 -20 21 0 8 -4 13 -9 9 -5 -3 -13 0 -17 6 -4 8 -3 9 4 5 7
-4 12 -2 12 5 0 6 -8 9 -20 6 -21 -5 -80 12 -80 24 0 4 7 13 16 20 15 12 19
11 32 -9 21 -32 50 -28 66 10 12 28 12 35 -3 55 -17 24 -51 31 -51 10 0 -7 -6
-21 -13 -30 -10 -15 -16 -16 -40 -5 -18 9 -25 18 -21 28 4 8 9 26 12 40 2 14
8 30 13 35 5 7 -10 18 -42 30 -28 11 -53 23 -56 28 -6 10 3 9 43 -8z m-592 -8
c3 3 6 1 6 -6 0 -7 5 -9 10 -6 6 3 10 1 10 -5 0 -12 -8 -11 -75 6 -18 5 -18 3
4 -15 13 -12 20 -21 17 -21 -14 0 47 -80 65 -85 11 -4 16 -11 13 -17 -5 -7 -2
-9 8 -6 8 4 21 2 29 -3 10 -6 7 -9 -11 -9 -14 0 -42 -9 -63 -19 -29 -15 -37
-16 -37 -5 0 8 -4 14 -10 14 -15 0 -80 61 -75 70 10 15 -13 20 -41 9 -16 -5
-32 -15 -35 -21 -9 -14 37 -66 69 -79 30 -12 28 -40 -6 -72 -21 -21 -34 -25
-60 -21 -35 6 -50 -11 -38 -43 6 -15 10 -13 31 12 13 17 24 26 24 20 1 -17
-107 -130 -116 -122 -10 10 9 39 33 52 14 8 19 20 18 54 0 39 -4 45 -35 61
-22 12 -38 15 -45 9 -8 -7 -15 0 -22 21 -6 16 -14 30 -17 30 -3 0 -3 -6 1 -12
5 -8 1 -7 -10 1 -17 14 -17 16 -1 28 12 8 23 9 36 3 22 -12 32 -13 25 -2 -3 5
1 9 9 9 21 0 19 -10 -9 -40 l-24 -26 27 5 c20 4 35 -1 57 -19 29 -24 91 -40
100 -26 5 8 -33 33 -51 34 -6 0 -24 10 -40 22 l-30 22 25 1 c20 0 22 2 10 10
-8 5 -10 10 -5 10 6 0 21 -10 35 -23 41 -37 78 -58 85 -47 3 6 1 10 -4 10 -6
0 -11 7 -11 15 0 8 -4 15 -9 15 -16 0 -71 51 -66 60 3 5 1 11 -4 14 -5 4 -12
2 -16 -4 -11 -17 -24 -1 -23 28 1 34 36 55 64 39 16 -9 17 -8 7 4 -10 12 -4
19 31 37 56 30 97 41 117 31 9 -5 19 -5 23 -2z m-494 -15 c0 -7 -132 -53 -138
-47 -3 3 118 54 131 55 4 0 7 -3 7 -8z m894 -38 c5 -20 2 -35 -6 -42 -10 -8
-13 0 -13 38 0 53 9 54 19 4z m185 10 c-20 -25 -32 -11 -20 23 1 1 8 0 16 -3
12 -5 13 -10 4 -20z m-507 -3 c-12 -8 0 -42 22 -60 22 -18 20 -30 -4 -28 -12
1 -18 7 -16 14 3 7 -4 30 -16 50 -12 20 -17 33 -10 29 7 -4 12 -2 12 4 0 6 5
8 11 4 7 -4 8 -9 1 -13z m188 -14 c0 -5 -4 -5 -10 -2 -5 3 -10 14 -10 23 0 15
2 15 10 2 5 -8 10 -19 10 -23z m270 20 c0 -5 9 -17 22 -28 13 -11 17 -18 11
-14 -16 8 -17 -7 -2 -22 8 -8 5 -14 -10 -22 -29 -16 -26 -29 4 -23 28 5 79
-23 70 -38 -4 -6 -13 -7 -23 -1 -9 4 -34 11 -54 15 -21 4 -40 12 -44 18 -4 6
-3 8 4 4 6 -3 13 2 17 13 3 11 14 22 23 24 9 3 2 5 -15 6 -19 0 -33 -4 -33
-10 0 -8 -4 -8 -14 0 -10 8 -16 9 -21 1 -3 -5 -12 -10 -18 -10 -7 0 9 15 34
33 51 36 57 45 37 59 -11 8 -11 9 0 6 8 -2 13 -7 12 -11z m77 -34 c-3 -10 -5
-4 -5 12 0 17 2 24 5 18 2 -7 2 -21 0 -30z m-563 -32 c-6 -7 -44 40 -43 54 0
6 11 -3 24 -20 13 -16 22 -32 19 -34z m70 43 c10 -25 -1 -29 -14 -5 -6 12 -7
21 -1 21 5 0 12 -7 15 -16z m75 -11 c12 3 26 -2 33 -11 11 -13 10 -14 -2 -10
-8 3 -28 -4 -45 -16 -25 -16 -27 -17 -16 -2 10 11 11 20 5 24 -6 4 -14 16 -17
27 -7 19 -7 19 8 1 9 -12 22 -17 34 -13z m157 0 c-10 -10 -19 5 -10 18 6 11 8
11 12 0 2 -7 1 -15 -2 -18z m-46 -2 c0 -10 -6 -21 -14 -24 -11 -4 -11 -1 -2
19 13 29 16 30 16 5z m-965 -1 c-11 -5 -27 -9 -35 -9 -9 0 -8 4 5 9 11 5 27 9
35 9 9 0 8 -4 -5 -9z m1105 0 c0 -5 -5 -10 -11 -10 -5 0 -7 5 -4 10 3 6 8 10
11 10 2 0 4 -4 4 -10z m-973 -11 c-10 -6 -60 -15 -110 -20 -51 -4 -94 -9 -97
-9 -3 -1 4 -6 15 -11 16 -7 14 -9 -12 -6 -18 2 -30 0 -27 -5 7 -11 0 -10 -31
6 -36 19 -21 25 71 31 95 6 177 15 183 21 2 2 9 4 15 4 6 0 3 -5 -7 -11z
m-194 -6 c-7 -2 -19 -2 -25 0 -7 3 -2 5 12 5 14 0 19 -2 13 -5z m467 -13 c-12
-7 -12 -12 4 -29 22 -25 13 -45 -14 -31 -10 5 -29 10 -41 10 -22 0 -22 0 -4
14 11 8 24 12 30 9 5 -4 7 -3 3 2 -9 10 10 35 26 35 6 0 4 -4 -4 -10z m145
-46 c8 -13 12 -24 8 -24 -10 0 -53 42 -53 51 0 15 29 -2 45 -27z m835 -9 c-14
-36 -24 -26 -15 15 4 20 11 28 16 23 6 -6 6 -20 -1 -38z m-582 14 c-7 -5 -19
-9 -26 -9 -10 0 -10 3 0 14 7 7 19 11 26 8 11 -4 11 -6 0 -13z m125 14 c-7 -2
-19 -2 -25 0 -7 3 -2 5 12 5 14 0 19 -2 13 -5z m74 1 c-3 -3 -12 -4 -19 -1 -8
3 -5 6 6 6 11 1 17 -2 13 -5z m108 -11 c18 -14 18 -15 2 -9 -10 3 -28 6 -40 6
-18 0 -19 2 -7 10 19 13 21 12 45 -7z m-1102 0 c-7 -2 -19 -2 -25 0 -7 3 -2 5
12 5 14 0 19 -2 13 -5z m597 -48 c0 -2 -7 -5 -15 -9 -9 -3 -15 0 -15 9 0 9 6
12 15 9 8 -4 15 -7 15 -9z m1053 -44 c20 -19 24 -27 15 -34 -9 -6 -8 -7 3 -4
10 3 25 -4 36 -16 35 -39 35 -45 1 -63 -21 -10 -28 -11 -20 -3 6 7 12 17 12
22 0 4 -6 5 -12 0 -7 -4 -19 -8 -26 -9 -23 -4 -26 -13 -8 -20 15 -6 14 -9 -10
-25 -19 -12 -33 -15 -49 -9 -13 5 -25 7 -27 4 -3 -2 -15 7 -27 20 -23 24 -17
42 9 25 12 -7 12 -9 1 -9 -24 0 5 -25 32 -28 26 -2 43 12 49 38 2 8 12 17 22
20 11 3 22 12 24 19 3 9 0 11 -7 6 -7 -4 -21 2 -32 14 -24 26 -35 26 -48 4 -8
-15 -12 -16 -22 -5 -10 9 -10 15 -1 24 8 8 8 17 0 31 -8 16 -7 23 7 34 20 14
25 11 78 -36z m-1402 -4 c-10 -9 -11 -8 -5 6 3 10 9 15 12 12 3 -3 0 -11 -7
-18z m1287 -23 c-7 -15 -15 -21 -21 -15 -5 5 -4 17 4 29 18 28 31 17 17 -14z
m-1787 3 c-10 -9 -11 -8 -5 6 3 10 9 15 12 12 3 -3 0 -11 -7 -18z m560 -4 c10
-11 10 -14 2 -9 -8 4 -13 2 -13 -5 0 -8 -4 -8 -15 1 -8 7 -15 16 -15 21 0 15
27 10 41 -8z m69 -27 c0 -3 -4 -8 -10 -11 -5 -3 -10 -1 -10 4 0 6 5 11 10 11
6 0 10 -2 10 -4z m20 -16 c0 -5 -5 -10 -11 -10 -5 0 -7 5 -4 10 3 6 8 10 11
10 2 0 4 -4 4 -10z m1225 0 c3 -5 1 -10 -4 -10 -6 0 -11 5 -11 10 0 6 2 10 4
10 3 0 8 -4 11 -10z m-1305 -26 c0 -2 -9 0 -20 6 -11 6 -20 13 -20 16 0 2 9 0
20 -6 11 -6 20 -13 20 -16z m53 -7 c-3 -4 -6 -7 -7 -5 -1 2 -8 12 -16 22 -14
18 -14 18 7 6 12 -8 19 -18 16 -23z m-173 8 c0 -8 -4 -15 -10 -15 -5 0 -7 7
-4 15 4 8 8 15 10 15 2 0 4 -7 4 -15z m61 -41 c-11 -17 -11 -16 -6 6 6 23 5
23 -8 8 -8 -10 -16 -18 -19 -18 -4 0 -3 39 1 60 1 2 11 -5 22 -17 17 -17 19
-24 10 -39z m1349 32 c0 -11 -19 -15 -25 -6 -3 5 1 10 9 10 9 0 16 -2 16 -4z
m-1412 -28 c-6 -18 -28 -21 -28 -4 0 9 7 16 16 16 9 0 14 -5 12 -12z m115 -19
c4 -15 2 -18 -7 -10 -7 6 -16 8 -19 4 -4 -3 -7 -2 -7 4 0 28 26 30 33 2z m37
-20 c0 -5 -4 -9 -8 -9 -5 0 -9 7 -9 15 0 8 4 12 9 9 4 -3 8 -9 8 -15z m-940
-28 c0 -10 -73 -41 -97 -41 -11 0 -5 8 17 25 33 24 80 34 80 16z m162 -28 c18
-15 34 -27 35 -28 1 0 -6 -23 -14 -50 -15 -44 -17 -47 -26 -27 -6 12 -14 22
-19 22 -4 0 -8 8 -8 18 0 10 -13 31 -30 47 -16 16 -30 32 -30 37 0 19 61 6 92
-19z m808 7 c0 -5 -5 -10 -11 -10 -5 0 -7 5 -4 10 3 6 8 10 11 10 2 0 4 -4 4
-10z m-1080 -33 c0 -13 -37 -43 -48 -39 -10 3 -9 8 4 23 15 16 44 27 44 16z
m-124 -49 c7 -24 -7 -41 -32 -36 -22 4 -30 34 -14 53 15 18 37 9 46 -17z m24
-119 c0 -5 -4 -9 -10 -9 -5 0 -10 7 -10 16 0 8 5 12 10 9 6 -3 10 -10 10 -16z
m1995 -8 c-8 -17 -19 -33 -25 -36 -5 -3 -1 10 11 29 25 43 36 48 14 7z m-98
-7 c-3 -3 -12 -4 -19 -1 -8 3 -5 6 6 6 11 1 17 -2 13 -5z m-1787 -180 c37 -32
62 -77 54 -98 -11 -28 -33 -17 -52 27 -10 23 -26 48 -35 56 -18 14 -23 41 -8
41 5 0 23 -12 41 -26z m-719 -183 c22 -18 23 -19 5 -45 -24 -38 -70 -33 -74 7
-4 30 12 57 33 57 7 0 23 -8 36 -19z m776 -38 c-6 -16 -14 -30 -18 -33 -3 -3
-11 -14 -17 -25 -9 -17 -11 -17 -12 -3 0 18 41 87 52 88 4 0 2 -12 -5 -27z
m-842 -93 c3 -5 1 -10 -4 -10 -6 0 -11 5 -11 10 0 6 2 10 4 10 3 0 8 -4 11
-10z m3322 -52 c-3 -8 -6 -5 -6 6 -1 11 2 17 5 13 3 -3 4 -12 1 -19z m-2849
-186 c4 -12 -45 -28 -55 -18 -8 8 28 36 41 33 6 -2 11 -8 14 -15z m117 -298
c0 -14 -22 -39 -65 -73 l-65 -53 -3 41 c-3 45 -26 60 -62 41 -21 -11 -27 -44
-10 -55 14 -9 13 -26 -2 -22 -6 1 -34 23 -62 49 -47 44 -50 48 -35 64 19 18
131 32 239 30 59 -1 65 -3 65 -22z m-450 -83 c3 -5 1 -12 -5 -16 -5 -3 -10 1
-10 9 0 18 6 21 15 7z m-18 -66 c0 -17 -13 -20 -21 -6 -4 5 0 12 6 14 7 3 13
6 14 6 0 1 1 -6 1 -14z m2562 -228 c-13 -10 -39 -32 -58 -48 -37 -31 -63 -29
-34 3 30 35 95 78 106 71 6 -4 0 -14 -14 -26z m606 -18 c43 -40 61 -77 31 -66
-9 4 -12 0 -9 -11 5 -21 -51 -77 -66 -68 -6 4 -11 17 -11 29 -1 20 -3 19 -30
-11 -28 -30 -30 -38 -30 -110 0 -85 -21 -171 -52 -214 -18 -26 -15 -34 14 -29
4 0 16 -13 28 -29 22 -31 18 -52 -13 -78 -11 -9 -18 -5 -35 18 -12 16 -19 36
-16 44 4 9 0 18 -10 22 -9 3 -14 10 -11 14 3 5 -13 19 -35 31 -36 20 -40 27
-35 49 4 14 8 33 10 43 2 9 19 36 37 60 48 61 58 82 47 98 -11 17 -12 39 -1
24 4 -5 12 -11 19 -12 19 -4 4 26 -19 38 -15 8 -19 8 -14 0 9 -14 -7 -14 -21
0 -9 9 -11 7 -7 -8 4 -13 0 -22 -10 -26 -9 -4 -16 -14 -16 -23 0 -10 -3 -15
-6 -11 -4 3 -13 0 -21 -8 -19 -20 -31 -19 -29 2 1 12 -7 19 -23 21 -20 3 -23
0 -18 -17 6 -23 5 -24 -17 -15 -9 3 -16 14 -16 23 0 13 -2 13 -9 2 -7 -11 -10
-9 -16 8 -3 11 -13 21 -21 21 -11 0 -14 7 -10 23 3 12 3 16 0 10 -8 -19 -27
-16 -20 3 3 8 2 12 -4 9 -6 -4 -10 10 -10 34 0 22 4 42 8 45 4 2 6 -11 4 -30
-2 -19 -2 -34 2 -34 7 0 41 63 38 73 -3 10 12 9 24 -3 7 -7 19 -8 36 -1 27 10
64 5 86 -12 6 -5 12 -6 12 -1 0 5 12 23 26 39 l25 30 -17 -32 c-17 -31 -17
-32 7 -67 16 -25 25 -31 27 -20 2 8 -1 21 -7 28 -21 25 25 25 66 0 41 -25 65
-32 45 -12 -8 8 -9 15 -1 25 9 10 8 13 -5 14 -36 3 -41 6 -38 19 2 8 14 26 26
39 27 27 49 23 99 -17 l32 -26 -24 27 c-13 15 -32 29 -43 33 -19 6 -26 34 -8
34 6 0 31 -19 55 -41z m-541 -16 c23 -34 24 -38 9 -41 -39 -7 -47 -12 -35 -24
7 -7 8 -17 2 -29 -8 -15 -2 -13 34 7 l44 25 5 -38 c3 -21 8 -48 12 -60 5 -14
3 -23 -4 -23 -5 0 -8 6 -5 14 7 18 -12 30 -22 15 -4 -7 -3 -9 4 -5 7 4 10 -3
9 -21 -2 -16 4 -33 13 -40 10 -8 11 -12 3 -13 -7 0 -13 -5 -13 -11 0 -5 4 -8
9 -5 5 3 13 0 19 -7 13 -16 11 -49 -2 -44 -6 3 -10 10 -8 16 1 6 -5 14 -13 17
-8 4 -15 15 -15 25 0 13 -7 19 -22 18 -17 -1 -19 -2 -5 -6 18 -5 23 -38 7 -48
-6 -4 -7 -13 -1 -23 5 -10 7 -30 4 -45 -3 -17 -1 -27 6 -27 7 0 10 -4 6 -9 -9
-15 43 -50 66 -44 17 5 38 52 32 73 -1 3 -4 14 -8 25 l-7 20 14 -20 c7 -11 14
-29 15 -40 1 -11 3 -29 5 -40 2 -15 -4 -21 -27 -25 -41 -7 -46 -42 -8 -59 18
-9 23 -15 15 -18 -21 -8 -88 64 -113 121 -16 37 -23 77 -26 150 -4 95 -6 100
-35 130 -17 17 -33 26 -35 21 -13 -36 -21 -38 -47 -9 -14 16 -26 34 -26 40 0
16 91 94 111 94 3 0 18 -17 33 -37z m247 7 c34 -19 21 -30 -34 -30 -62 0 -76
8 -44 26 28 15 53 17 78 4z m-131 -20 c0 -5 -2 -10 -4 -10 -3 0 -8 5 -11 10
-3 6 -1 10 4 10 6 0 11 -4 11 -10z m0 -200 c0 -6 11 -20 25 -32 30 -26 32 -38
5 -38 -13 0 -25 12 -35 36 -18 43 -18 44 -5 44 6 0 10 -5 10 -10z m200 -9 c0
-28 -36 -69 -50 -55 -8 8 -3 19 17 42 33 37 33 37 33 13z m-260 -61 c0 -5 -8
-10 -17 -10 -15 0 -16 2 -3 10 19 12 20 12 20 0z m197 -22 c-3 -8 -6 -5 -6 6
-1 11 2 17 5 13 3 -3 4 -12 1 -19z m-80 -20 c-3 -7 -5 -2 -5 12 0 14 2 19 5
13 2 -7 2 -19 0 -25z m44 17 c6 16 8 12 8 -17 1 -29 -2 -36 -14 -32 -9 4 -15
18 -14 38 1 21 3 25 7 11 l5 -20 8 20z m-122 -14 c2 -1 -2 -8 -9 -16 -7 -8
-16 -12 -21 -9 -12 7 -11 -7 1 -26 8 -13 10 -13 10 1 0 9 6 19 13 22 7 3 12
-4 12 -17 0 -15 -7 -22 -25 -23 -22 -2 -26 2 -24 25 1 15 3 29 4 32 1 3 2 8 1
12 0 5 8 5 38 -1z m151 -93 c0 -5 -4 -8 -10 -8 -5 0 -19 -9 -30 -20 -20 -20
-40 -19 -40 2 0 5 7 8 15 4 8 -3 15 -1 15 4 0 6 -4 10 -10 10 -5 0 -10 3 -10
8 0 4 16 7 35 7 19 0 35 -3 35 -7z m20 -33 c0 -8 -9 -15 -20 -15 -20 0 -26 11
-13 23 12 13 33 7 33 -8z m-113 -11 c5 -15 -28 -27 -40 -15 -5 5 -6 14 -2 21
8 13 37 9 42 -6z m-89 -25 c2 -16 -7 -34 -27 -53 -24 -23 -32 -26 -49 -17 -33
18 -35 42 -6 72 34 35 78 34 82 -2z m252 5 c0 -17 -26 -19 -36 -3 -7 12 15 31
28 23 4 -3 8 -12 8 -20z m-136 -6 c-6 -10 -4 -10 7 0 18 16 44 15 59 -3 11
-13 10 -14 -4 -9 -9 3 -16 1 -16 -5 0 -14 -25 -14 -52 0 -17 9 -18 13 -7 20
19 12 21 11 13 -3z m-3033 -36 c4 -18 3 -32 -2 -32 -5 0 -9 -13 -9 -30 0 -28
-22 -50 -49 -50 -12 0 -16 132 -4 143 3 4 18 6 32 4 19 -3 27 -11 32 -35z
m212 -22 c-4 -44 -3 -60 7 -60 10 0 10 -3 1 -14 -7 -8 -19 -13 -28 -12 -14 2
-16 14 -14 67 3 70 6 79 26 79 10 0 12 -14 8 -60z m363 13 c-4 -62 -16 -104
-27 -97 -5 3 -9 14 -9 25 0 12 -7 19 -19 19 -15 0 -18 7 -17 45 1 35 5 45 18
45 9 0 18 -10 21 -22 4 -20 4 -19 6 5 0 16 7 27 15 27 11 0 14 -12 12 -47z
m122 -24 c0 -55 -2 -60 -25 -65 -27 -7 -49 8 -39 25 4 6 14 11 23 11 13 0 13
2 2 17 -11 13 -11 17 -1 20 6 3 12 12 11 21 0 11 -2 12 -6 4 -6 -15 -23 -6
-23 13 0 14 27 24 47 17 6 -2 11 -27 11 -63z m-578 2 c0 -64 0 -65 -43 -75
l-28 -7 3 71 3 70 33 0 32 0 0 -59z m326 44 c9 -23 -5 -65 -21 -65 -8 0 -15
-8 -14 -17 0 -11 3 -13 6 -5 6 15 23 6 23 -14 0 -9 -11 -14 -30 -14 -27 0 -30
3 -30 34 0 25 5 35 20 39 11 3 20 13 20 24 0 14 -2 15 -9 4 -11 -17 -32 -5
-24 14 7 20 52 19 59 0z m2682 -19 c-21 -12 -35 -26 -32 -29 8 -8 -49 8 -70
20 -9 5 3 8 35 9 27 0 55 6 61 12 7 7 19 12 28 12 8 0 -2 -11 -22 -24z m2 -41
c4 3 14 -3 21 -13 12 -15 12 -16 -1 -6 -8 6 -23 10 -32 9 -12 -2 -15 2 -10 13
4 10 7 12 10 4 2 -7 7 -10 12 -7z m-114 -7 c4 -7 4 -10 -1 -6 -4 4 -15 2 -24
-5 -14 -11 -14 -10 -2 6 16 20 18 21 27 5z m54 -4 c0 -8 -4 -12 -10 -9 -5 3
-10 10 -10 16 0 5 5 9 10 9 6 0 10 -7 10 -16z"/>
<path d="M2980 3040 c0 -5 5 -10 11 -10 5 0 7 5 4 10 -3 6 -8 10 -11 10 -2 0
-4 -4 -4 -10z"/>
<path d="M3228 2783 c7 -3 16 -2 19 1 4 3 -2 6 -13 5 -11 0 -14 -3 -6 -6z"/>
<path d="M3260 2763 c0 -8 -4 -11 -10 -8 -6 3 -10 -4 -10 -16 0 -12 -7 -31
-17 -41 -15 -17 -15 -19 1 -37 30 -33 52 -32 70 5 17 37 12 68 -10 60 -18 -7
-18 9 1 27 12 13 12 15 -5 20 -13 3 -20 0 -20 -10z m20 -61 c0 -5 -7 -17 -15
-28 -15 -19 -20 -8 -9 20 6 17 24 22 24 8z"/>
<path d="M3270 2601 c0 -5 7 -11 14 -14 10 -4 13 -1 9 9 -6 15 -23 19 -23 5z"/>
<path d="M2380 2854 l35 -17 -40 -11 c-39 -12 -39 -13 -18 -24 13 -7 25 -23
29 -36 7 -28 52 -56 62 -39 5 8 13 9 22 3 34 -22 41 -8 12 20 -18 16 -43 48
-57 70 -14 22 -29 40 -34 40 -5 0 -18 2 -28 5 -10 3 -2 -2 17 -11z m25 -54 c3
-5 2 -10 -4 -10 -5 0 -13 5 -16 10 -3 6 -2 10 4 10 5 0 13 -4 16 -10z m20 -31
c11 -17 -1 -21 -15 -4 -8 9 -8 15 -2 15 6 0 14 -5 17 -11z"/>
<path d="M2205 2499 c-4 -6 -5 -12 -2 -15 2 -3 7 2 10 11 7 17 1 20 -8 4z"/>
<path d="M2986 2802 c-3 -5 1 -9 9 -9 8 0 12 4 9 9 -3 4 -7 8 -9 8 -2 0 -6 -4
-9 -8z"/>
<path d="M2043 2545 c0 -8 4 -12 9 -9 5 3 6 10 3 15 -9 13 -12 11 -12 -6z"/>
<path d="M3547 720 c-14 -27 -7 -54 7 -31 3 5 14 7 24 4 23 -6 44 19 36 41
-11 28 -51 19 -67 -14z m49 -3 c1 -9 -3 -14 -11 -11 -20 8 -26 32 -8 30 9 -2
17 -10 19 -19z"/>
<path d="M3240 689 c-6 -9 -7 -24 -4 -32 3 -8 0 -18 -7 -23 -7 -4 -10 -3 -5 4
3 6 2 13 -4 17 -14 9 -13 -38 2 -53 8 -8 16 -8 32 0 12 6 22 11 24 10 1 -1 8
-2 15 -2 9 0 12 10 9 30 -4 29 -3 30 28 28 42 -3 47 -15 10 -23 -35 -8 -37
-15 -10 -40 16 -15 22 -15 35 -5 21 18 18 51 -9 81 -28 33 -101 38 -116 8z
m44 -35 c3 -8 3 -21 0 -29 -6 -14 -8 -13 -21 2 -14 17 -14 17 -9 1 3 -11 0
-18 -8 -18 -10 0 -11 7 -2 34 10 34 29 38 40 10z m70 -36 c-3 -4 -9 -8 -15 -8
-5 0 -9 4 -9 8 0 5 7 9 15 9 8 0 12 -4 9 -9z"/>
<path d="M3442 675 c0 -16 2 -22 5 -12 2 9 2 23 0 30 -3 6 -5 -1 -5 -18z"/>
<path d="M3473 568 c4 -12 1 -18 -8 -18 -12 0 -24 -19 -25 -42 -1 -4 -14 -21
-30 -37 -47 -46 -39 -131 11 -131 19 0 42 24 32 33 -3 4 -12 2 -20 -4 -7 -6
-14 -9 -14 -5 -5 23 -4 32 4 43 5 7 7 20 3 28 -7 20 -4 19 25 -6 21 -19 22
-21 4 -17 -13 2 -20 -3 -23 -17 -2 -16 -1 -17 7 -5 7 10 11 11 11 3 0 -7 5
-13 11 -13 5 0 8 4 4 9 -3 5 -1 13 5 16 6 4 8 16 5 26 -4 11 -2 26 4 33 8 10
7 17 -4 26 -21 17 -19 39 4 48 18 6 18 9 4 27 -13 16 -15 17 -10 3z m-33 -92
c0 -2 -7 -7 -16 -10 -8 -3 -12 -2 -9 4 6 10 25 14 25 6z"/>
<path d="M3440 288 c9 -7 15 -20 15 -28 -2 -20 14 -40 32 -40 28 0 9 43 -27
63 -19 10 -28 13 -20 5z"/>
<path d="M2974 745 c-7 -17 12 -45 31 -45 19 0 36 25 29 44 -8 20 -53 21 -60
1z m35 -21 c-14 -18 -24 -11 -15 11 3 9 11 13 16 10 8 -5 7 -11 -1 -21z"/>
<path d="M3032 701 c4 -13 18 -16 19 -4 0 4 -5 9 -11 12 -7 2 -11 -2 -8 -8z"/>
<path d="M3097 581 c-4 -17 -3 -21 5 -13 5 5 8 16 6 23 -3 8 -7 3 -11 -10z"/>
<path d="M3100 281 c-30 -8 -43 -55 -14 -49 9 1 22 12 28 23 6 11 16 23 21 27
12 9 0 9 -35 -1z"/>
<path d="M191 244 c0 -11 3 -14 6 -6 3 7 2 16 -1 19 -3 4 -6 -2 -5 -13z"/>
<path d="M311 194 c0 -11 3 -14 6 -6 3 7 2 16 -1 19 -3 4 -6 -2 -5 -13z"/>
<path d="M2970 3681 c0 -5 7 -17 16 -26 19 -19 40 -6 31 19 -7 17 -47 22 -47
7z"/>
<path d="M2786 3662 c-3 -6 -1 -14 5 -17 15 -10 25 3 12 16 -7 7 -13 7 -17 1z"/>
</g>
</svg>
