<?xml version="1.0" standalone="no"?>
<!DOCTYPE svg PUBLIC "-//W3C//DTD SVG 20010904//EN"
 "http://www.w3.org/TR/2001/REC-SVG-20010904/DTD/svg10.dtd">
<svg version="1.0" xmlns="http://www.w3.org/2000/svg"
 width="403.000000pt" height="576.000000pt" viewBox="0 0 403.000000 576.000000"
 preserveAspectRatio="xMidYMid meet">

<g transform="translate(0.000000,576.000000) scale(0.100000,-0.100000)"
fill="#000000" stroke="none">
<path d="M0 2880 l0 -2880 2015 0 2015 0 0 2880 0 2880 -2015 0 -2015 0 0
-2880z m2419 2700 c481 -81 889 -278 1210 -584 121 -117 292 -331 274 -345 -9
-8 -174 -145 -341 -281 -56 -47 -106 -86 -111 -88 -4 -1 -13 10 -20 25 -35 77
-133 207 -225 298 -298 296 -718 455 -1201 455 -376 0 -703 -97 -1003 -297
-107 -71 -271 -234 -337 -334 -27 -42 -54 -84 -60 -92 -8 -13 -45 11 -214 138
-112 85 -210 160 -218 168 -12 12 -7 23 33 78 89 121 189 233 283 317 365 324
804 509 1346 566 106 11 464 -3 584 -24z m-1423 -1316 l24 -31 -46 -23 c-25
-13 -48 -28 -51 -33 -3 -5 9 -1 26 7 39 20 81 37 81 32 0 -3 -30 -21 -67 -42
-90 -49 -238 -161 -335 -253 -43 -40 -78 -69 -78 -64 0 22 179 181 298 263 34
24 60 45 58 47 -18 18 -386 -295 -386 -328 0 -8 4 -8 15 1 18 15 20 -1 3 -18
-9 -9 -18 -4 -40 20 -46 51 -45 63 8 125 55 64 136 133 281 240 140 102 169
110 209 57z m2319 -23 c33 -20 63 -44 169 -139 133 -119 226 -230 226 -270 0
-17 -46 -70 -53 -61 -2 2 -24 31 -49 64 -85 112 -343 339 -409 360 -20 7 -20
8 12 41 35 37 48 37 104 5z m-2320 -74 c-64 -34 -220 -141 -230 -157 -4 -6
-11 -10 -16 -10 -19 0 3 20 89 82 89 63 185 118 206 118 6 0 -16 -15 -49 -33z
m2224 3 c62 -31 188 -136 289 -239 103 -106 151 -176 133 -194 -14 -14 -34 10
-26 31 7 18 -18 49 -132 164 -54 54 -100 93 -103 87 -4 -6 -30 10 -63 37 -31
27 -55 50 -52 52 2 2 27 -15 54 -39 28 -23 53 -40 56 -37 2 2 -27 29 -65 58
-69 55 -99 72 -86 51 11 -17 -3 -13 -35 10 -16 11 -27 25 -24 30 8 12 10 12
54 -11z m-2133 -24 c16 -18 54 -66 84 -106 30 -40 72 -93 93 -118 20 -26 37
-51 36 -57 0 -5 -13 -20 -29 -33 -31 -24 -80 -22 -80 3 0 8 -8 11 -20 8 -11
-3 -20 -9 -20 -13 0 -5 -15 -18 -32 -30 l-33 -22 28 26 c58 54 -22 14 -113
-57 -86 -66 -137 -117 -119 -117 8 0 21 6 29 13 7 6 4 -1 -8 -17 -12 -16 -22
-43 -22 -60 0 -39 -6 -47 -54 -69 l-40 -19 -28 34 c-15 18 -31 38 -35 43 -5 6
-28 37 -53 69 -25 33 -58 74 -74 90 -15 17 -35 46 -42 64 -14 30 -13 35 7 60
37 48 168 164 178 158 5 -4 54 26 108 65 84 61 182 119 204 119 4 0 20 -15 35
-34z m2110 -13 c12 -7 28 -11 37 -8 8 4 18 1 23 -6 5 -9 2 -10 -12 -5 -11 4
-15 4 -9 -2 90 -80 134 -112 147 -107 10 4 51 -31 121 -105 59 -61 107 -116
107 -121 0 -4 -52 44 -116 109 -70 70 -85 83 -38 32 110 -118 154 -174 154
-195 0 -17 -68 -97 -189 -222 -33 -35 -63 -63 -66 -63 -3 0 -23 11 -45 25 -36
23 -40 29 -40 67 0 25 -7 49 -17 61 -17 19 -17 20 5 8 12 -6 22 -8 22 -4 0 11
-167 175 -200 197 -35 23 -46 20 -24 -6 10 -13 -1 -5 -26 17 -36 32 -45 36
-48 22 -5 -27 -54 -21 -85 11 l-26 27 135 147 c140 153 140 153 190 121z
m-984 -74 c62 -33 117 -64 121 -69 5 -4 -4 -22 -20 -40 -27 -30 -35 -33 -117
-40 -48 -5 -125 -5 -169 0 -45 4 -85 6 -89 4 -20 -13 -79 10 -93 35 -8 14 -14
21 -15 15 0 -15 -38 -25 -46 -13 -3 5 4 9 15 9 15 0 21 7 21 23 0 13 3 17 8
10 5 -8 47 10 137 58 72 38 131 69 132 69 1 0 53 -27 115 -61z m404 -12 c4 -4
3 -7 -2 -7 -5 0 -20 -10 -34 -21 -14 -11 -19 -18 -12 -14 18 9 15 -8 -5 -26
-32 -28 -63 -73 -63 -91 0 -9 -8 -22 -19 -27 -25 -14 -38 -46 -14 -37 16 6 16
6 0 -12 -23 -25 -21 -31 6 -25 16 3 18 2 8 -5 -21 -15 -3 -33 26 -26 l25 7
-16 -32 c-15 -28 -15 -33 -2 -46 8 -8 20 -15 27 -15 7 0 10 -3 6 -6 -3 -3 3
-14 14 -25 10 -10 19 -25 19 -33 0 -15 80 -79 88 -71 3 2 -2 15 -11 28 -17 26
-7 47 23 47 8 0 1 9 -16 19 -33 20 -43 62 -22 89 8 9 5 12 -11 12 -12 0 -24
-7 -27 -15 -4 -8 -12 -15 -19 -15 -10 0 -11 5 -2 25 9 18 20 25 40 25 19 0 27
5 27 18 1 12 9 8 31 -18 l29 -35 -1 -168 c-1 -164 -2 -167 -20 -151 -12 11
-16 20 -9 24 6 4 -7 20 -29 38 l-39 31 16 -40 c8 -22 27 -50 42 -63 23 -18 24
-24 13 -35 -12 -11 -12 -17 2 -39 9 -15 31 -40 48 -56 24 -21 26 -25 9 -16
-13 6 -26 9 -29 6 -7 -6 29 -21 75 -29 29 -6 31 -5 18 8 -8 8 -17 15 -20 15
-8 0 -46 39 -46 47 0 4 -9 16 -20 28 l-20 22 31 0 c26 0 30 -3 25 -21 -6 -21
18 -56 39 -56 26 0 48 -83 32 -120 -8 -18 5 -41 24 -43 8 -2 21 -7 29 -12 12
-8 9 -11 -15 -16 l-30 -6 25 -10 c24 -10 23 -11 -23 -23 -34 -9 -52 -20 -59
-36 -15 -32 -20 -30 -57 11 -29 34 -50 47 -35 24 4 -7 1 -10 -7 -7 -8 3 -16
13 -18 23 -2 13 1 16 13 12 8 -3 18 -2 21 3 3 5 13 6 23 3 15 -6 15 -4 -2 15
-19 22 -19 22 0 21 37 -4 54 1 54 16 0 8 -11 17 -25 21 -14 3 -22 10 -19 16 3
5 -2 16 -12 24 -18 14 -18 15 6 11 14 -2 33 -8 43 -12 10 -4 17 -3 17 3 0 6
-10 14 -22 17 -27 8 -130 77 -124 82 2 3 12 6 23 8 10 2 20 4 22 4 2 1 -2 8
-9 16 -7 8 -9 23 -6 32 4 10 4 14 0 11 -4 -4 -18 1 -31 12 -13 10 -30 17 -37
14 -8 -3 -27 16 -47 48 -32 50 -34 51 -37 26 -2 -14 9 -50 23 -79 23 -45 24
-51 8 -45 -14 6 -16 5 -5 -5 30 -31 -8 -45 -62 -23 -14 5 -17 4 -12 -5 5 -8 0
-20 -13 -32 -12 -11 -21 -31 -21 -44 0 -14 -5 -25 -11 -25 -5 0 -9 -12 -8 -27
4 -51 0 -63 -21 -63 -19 0 -46 42 -42 63 1 4 -8 7 -19 7 -19 0 -21 -4 -15 -39
4 -29 2 -44 -12 -58 -21 -25 -123 -63 -165 -63 l-32 1 31 13 c55 24 71 110 29
151 -19 20 -34 25 -77 25 -31 0 -62 -6 -75 -15 -49 -34 -36 -135 20 -160 l32
-13 -27 -1 c-33 -1 -158 38 -175 55 -15 14 -18 64 -4 64 5 0 7 9 4 20 -6 23
-43 27 -43 5 0 -9 -10 -20 -22 -25 -19 -7 -19 -9 -5 -9 27 -1 10 -21 -18 -21
-18 0 -23 4 -19 15 4 8 1 15 -5 15 -8 0 -9 5 -1 19 7 14 6 23 -3 33 -8 7 -13
22 -11 31 1 12 -2 17 -11 14 -9 -4 -11 1 -8 14 3 10 0 19 -6 19 -6 0 -11 9
-11 20 0 20 -11 26 -24 13 -10 -11 -66 -12 -66 -2 0 4 5 11 10 14 6 3 10 11
10 17 0 6 -7 5 -17 -3 -14 -13 -15 -12 -6 6 34 68 53 113 53 128 0 29 -28 7
-51 -40 -12 -24 -26 -42 -33 -40 -22 8 -54 -12 -70 -44 -20 -39 -20 -50 -2
-43 8 3 17 1 21 -5 3 -6 -21 -28 -57 -51 -35 -22 -68 -44 -73 -48 -6 -5 -17
-12 -25 -15 -12 -4 -11 -6 2 -6 9 -1 23 5 30 12 7 6 24 13 38 14 25 3 25 2 5
-13 -16 -13 -17 -17 -6 -21 9 -4 2 -10 -18 -19 -40 -17 -32 -34 16 -34 36 0
36 0 18 -20 -15 -17 -16 -20 -3 -15 9 4 19 2 22 -4 4 -6 13 -8 21 -4 18 6 20
-8 3 -25 -18 -18 -19 -42 -2 -35 8 3 14 2 13 -3 -4 -26 4 -42 26 -54 16 -9 25
-22 25 -37 0 -14 4 -21 10 -18 6 3 14 -5 19 -18 6 -14 15 -28 20 -32 9 -5 17
-55 9 -55 -2 0 -32 15 -68 33 -44 23 -66 40 -68 54 -2 16 -8 19 -24 15 -19 -4
-20 -2 -13 19 4 13 9 42 10 65 l2 41 -32 -21 c-28 -18 -30 -22 -13 -26 20 -5
22 -14 7 -42 -7 -13 -6 -18 3 -18 9 0 9 -3 -2 -10 -30 -19 -37 -10 -43 52 -4
43 -11 66 -23 75 -16 11 -13 13 22 14 21 1 30 4 19 6 -11 3 -25 9 -31 14 -5 4
-21 6 -35 3 -17 -4 -20 -3 -11 4 20 14 -63 25 -88 12 -32 -17 -25 16 8 37 43
26 52 43 52 95 0 45 2 49 35 62 24 10 35 22 35 35 0 11 20 43 45 71 54 61 59
79 52 180 -6 92 12 204 38 228 16 16 17 15 13 -10 -3 -16 -2 -28 3 -28 4 0 6
-11 3 -25 -2 -14 0 -25 6 -25 6 0 8 -4 5 -10 -3 -5 -1 -10 5 -10 6 0 8 -5 5
-10 -4 -6 -11 -8 -16 -5 -5 3 -6 0 -3 -8 3 -10 -4 -18 -23 -25 -15 -6 -21 -11
-13 -11 32 -2 41 -16 30 -46 -6 -15 -9 -30 -6 -32 7 -7 86 68 86 81 0 7 16 29
36 50 25 26 33 43 28 54 -15 35 -13 42 12 36 17 -5 24 -2 24 9 0 8 -6 18 -12
21 -7 4 -3 4 10 2 24 -5 29 12 9 33 -9 11 -9 13 1 7 21 -12 13 9 -12 33 -14
13 -22 29 -20 36 3 7 -2 20 -11 29 -9 9 -13 16 -9 16 4 0 -5 11 -20 25 -15 14
-21 25 -14 25 7 0 -3 14 -22 30 -26 22 -30 30 -17 30 22 0 98 -55 114 -83 15
-27 17 -50 3 -42 -25 15 -7 -15 22 -36 70 -53 82 -67 83 -95 0 -16 6 -29 15
-31 12 -4 12 -3 2 5 -10 6 -1 13 32 22 24 7 47 18 50 25 2 7 30 16 62 20 85
10 92 15 53 36 l-34 18 102 -2 c71 -1 95 -5 80 -11 -12 -5 -26 -8 -30 -7 -5 1
-6 -3 -3 -8 6 -9 87 -33 122 -35 12 -1 29 -10 39 -19 10 -10 24 -16 31 -13 7
3 16 -4 19 -15 8 -24 21 -24 35 0 7 13 7 22 0 26 -16 10 2 32 53 65 27 17 45
35 42 41 -13 20 17 67 66 107 46 38 69 45 85 29z m-1099 -69 c-3 -8 -6 -5 -6
6 -1 11 2 17 5 13 3 -3 4 -12 1 -19z m46 -26 c-6 -24 -23 -30 -23 -9 0 13 21
39 26 34 2 -2 1 -13 -3 -25z m1067 -14 c0 -4 -7 -8 -16 -8 -8 0 -13 4 -9 9 3
5 1 12 -5 16 -6 4 -7 11 -4 17 7 11 34 -16 34 -34z m-252 12 c-9 -14 -14 -16
-20 -7 -13 20 -9 27 12 27 18 0 19 -3 8 -20z m-47 -37 c-12 -20 -14 -14 -5 12
4 9 9 14 11 11 3 -2 0 -13 -6 -23z m-771 -3 c0 -5 -5 -10 -11 -10 -5 0 -7 5
-4 10 3 6 8 10 11 10 2 0 4 -4 4 -10z m-40 -39 c6 -11 6 -22 1 -25 -5 -3 -11
5 -13 19 -6 30 -2 32 12 6z m36 -8 c-4 -9 -1 -20 5 -24 7 -4 9 -14 4 -25 -5
-11 -7 -25 -6 -31 1 -7 -7 -13 -17 -13 -25 0 -34 42 -15 70 8 11 11 20 6 20
-4 0 -1 5 7 10 21 13 23 12 16 -7z m1079 -20 c18 -42 12 -73 -15 -73 -15 0
-18 8 -17 55 1 30 5 55 9 55 4 0 15 -16 23 -37z m285 -166 c113 -61 206 -111
208 -112 1 -1 -14 -19 -33 -41 -63 -68 -76 -134 -75 -380 0 -310 -22 -496 -82
-683 -63 -196 -152 -351 -274 -474 -37 -37 -69 -66 -71 -63 -2 2 1 22 7 45 18
69 -19 116 -110 137 -41 9 -49 10 -72 12 -12 1 -18 10 -18 26 0 36 -44 66 -95
66 -49 0 -49 -9 -9 125 14 44 37 98 52 120 23 33 34 40 62 40 l33 0 2 -80 c4
-122 12 -152 59 -200 52 -54 99 -66 158 -39 59 27 135 105 166 171 26 56 27
64 24 200 -2 142 -2 143 23 165 14 12 25 29 25 38 0 19 -51 69 -96 95 -30 17
-31 18 -22 74 5 31 15 62 23 70 8 8 45 22 82 31 96 25 94 47 -8 90 -24 10 -26
15 -21 59 4 44 1 51 -37 95 -23 27 -40 54 -37 61 2 7 -9 25 -25 41 l-29 28 0
166 0 167 -30 38 c-16 21 -30 40 -30 42 0 4 -10 9 250 -130z m-1760 -23 c0
-22 -28 -22 -47 -1 -49 57 -74 99 -68 115 6 14 17 6 61 -43 30 -33 54 -65 54
-71z m287 89 c-6 -21 -12 -92 -12 -158 -2 -158 1 -145 -50 -197 -30 -31 -45
-55 -45 -72 0 -19 -6 -27 -25 -32 -35 -9 -46 -26 -52 -88 -5 -52 -8 -56 -40
-68 -32 -12 -34 -15 -31 -53 3 -38 5 -40 43 -48 105 -22 112 -26 119 -58 13
-65 7 -108 -16 -120 -32 -17 -68 -60 -68 -81 0 -10 10 -22 23 -27 21 -8 25
-18 30 -80 3 -38 1 -87 -5 -107 -26 -95 45 -241 152 -313 103 -68 174 -67 246
4 47 47 56 76 58 180 1 47 4 61 14 57 15 -5 50 -77 82 -168 12 -32 25 -66 30
-75 10 -19 4 -29 -17 -29 -8 0 -28 -13 -46 -30 -29 -27 -38 -30 -102 -30 -39
0 -77 -6 -86 -13 -25 -19 -50 -63 -59 -102 -7 -33 -5 -39 25 -69 27 -27 43
-34 88 -39 50 -5 61 -11 102 -51 25 -25 42 -47 38 -47 -5 -1 -17 -2 -28 -3
-11 -1 -21 -9 -23 -18 -4 -22 42 -34 175 -48 106 -11 200 -3 303 26 86 23 110
35 110 53 0 14 11 16 65 16 36 0 65 -1 65 -2 0 -8 -162 -99 -274 -153 l-140
-68 -146 70 c-188 91 -290 158 -400 264 -187 180 -293 398 -352 724 -17 94
-21 162 -23 375 -1 143 -6 280 -10 305 -10 59 -53 147 -84 171 -13 11 -22 21
-20 22 6 6 125 70 244 132 61 32 119 64 130 72 11 7 20 13 21 13 1 0 -3 -17
-9 -37z m1681 -1 c2 -6 -16 -33 -41 -58 -35 -37 -47 -45 -61 -37 -15 8 -11 16
31 60 48 50 63 58 71 35z m-2060 -61 c23 -28 42 -55 42 -60 0 -12 -45 -30 -56
-23 -14 10 -74 99 -74 109 0 14 23 34 35 30 5 -2 29 -27 53 -56z m514 39 c33
-30 13 -36 -22 -6 -22 18 -26 26 -15 26 9 0 25 -9 37 -20z m1597 -24 c10 -12
5 -23 -25 -55 -41 -46 -43 -47 -70 -27 -18 14 -18 16 21 55 42 44 56 49 74 27z
m-2139 -125 c0 -10 15 -34 33 -53 27 -30 74 -118 62 -118 -3 0 -54 65 -198
247 -5 7 -6 21 -2 30 6 15 15 9 56 -35 27 -29 49 -61 49 -71z m2187 73 c4 -10
-8 -30 -33 -55 -35 -36 -39 -38 -46 -20 -5 15 1 30 24 56 35 39 46 43 55 19z
m-87 -117 c0 -2 -12 -14 -26 -28 l-27 -24 18 28 c14 22 35 36 35 24z m-1001
-346 c9 -6 -5 -10 -43 -12 -65 -5 -85 -1 -65 12 18 11 90 11 108 0z m-465 -37
c9 -3 14 -10 11 -14 -7 -11 15 -60 27 -60 4 0 8 -9 8 -20 0 -11 11 -30 25 -42
14 -12 23 -28 20 -36 -4 -10 0 -12 12 -7 33 12 37 10 43 -20 6 -28 7 -29 14
-7 4 12 11 22 16 22 13 0 40 -96 40 -139 0 -23 3 -31 9 -23 6 10 11 8 22 -10
12 -18 14 -45 9 -128 -4 -58 -7 -81 -8 -52 -1 28 -6 52 -11 52 -5 0 -14 30
-21 68 -22 125 -50 174 -50 90 0 -30 -3 -39 -9 -28 -6 8 -7 18 -5 22 3 4 0 8
-5 8 -6 0 -11 -8 -11 -17 0 -15 -2 -16 -10 -3 -8 13 -10 12 -10 -2 0 -10 -5
-18 -11 -18 -6 0 -9 7 -5 15 3 8 1 15 -4 15 -6 0 -10 -4 -10 -10 0 -5 -5 -10
-11 -10 -5 0 -9 8 -8 18 2 28 0 42 -8 41 -22 -4 -31 4 -37 32 -3 19 -10 28
-17 23 -8 -4 -9 3 -4 27 7 31 6 32 -9 20 -16 -13 -17 -12 -11 12 6 22 4 26 -8
21 -12 -4 -14 -1 -10 17 4 14 2 20 -5 15 -6 -3 -13 -2 -16 3 -4 5 -1 13 4 16
7 5 5 12 -7 22 -10 8 -13 12 -6 8 8 -4 8 3 -2 22 -13 24 -12 29 2 45 17 19 39
23 67 12z m881 -14 c11 -13 15 -25 10 -37 -5 -10 -9 -22 -9 -26 -1 -4 -7 -12
-15 -16 -9 -6 -10 -11 -2 -15 8 -5 7 -12 -4 -22 -8 -9 -12 -21 -8 -27 4 -7 0
-8 -11 -4 -14 6 -16 3 -11 -14 5 -14 3 -19 -3 -15 -15 9 -26 -14 -13 -27 15
-15 14 -27 -3 -27 -8 0 -16 -10 -18 -22 -2 -13 -13 -27 -25 -33 -15 -6 -23
-18 -23 -34 0 -20 -2 -21 -15 -11 -12 10 -15 9 -16 -6 -1 -18 -2 -18 -6 -1 -4
14 -8 16 -19 6 -11 -9 -14 -7 -15 12 -1 21 -2 20 -9 -6 l-8 -30 -1 37 c-1 35
-21 67 -21 34 0 -9 -4 -16 -9 -16 -5 0 -13 -26 -17 -57 -4 -32 -13 -72 -20
-90 -8 -18 -14 -43 -14 -57 0 -14 -5 -28 -11 -32 -16 -9 -7 174 9 202 9 14 12
15 12 4 2 -26 17 21 25 77 4 29 15 62 26 74 l19 22 0 -21 c0 -12 5 -22 10 -22
6 0 10 9 10 19 0 11 5 23 10 26 6 3 10 1 10 -5 0 -6 4 -9 9 -6 5 4 12 0 14 -6
3 -7 6 -3 6 9 1 12 9 28 19 35 23 17 41 45 21 33 -8 -5 -2 7 13 27 15 19 24
38 21 42 -4 3 -1 6 6 6 7 0 11 6 8 14 -11 29 43 34 68 6z m368 -77 c-7 -2 -19
-2 -25 0 -7 3 -2 5 12 5 14 0 19 -2 13 -5z m1017 -218 l0 -225 -405 0 -405 0
0 225 0 225 405 0 405 0 0 -225z m-2643 209 c-3 -3 -12 -4 -19 -1 -8 3 -5 6 6
6 11 1 17 -2 13 -5z m1411 -65 c-7 -5 -5 -23 6 -55 22 -66 21 -85 -5 -54 l-20
25 6 -41 c6 -42 6 -42 -39 -65 -76 -38 -112 -75 -155 -160 -23 -44 -41 -88
-41 -97 0 -14 -10 -17 -52 -17 -48 0 -54 -3 -75 -34 -22 -33 -23 -33 -23 -9 0
38 20 88 35 88 7 0 16 14 20 30 4 17 11 28 16 24 5 -3 9 6 9 20 0 14 5 26 10
26 6 0 10 7 10 15 0 8 3 14 8 14 24 -4 40 4 52 26 7 14 15 23 18 20 9 -8 32
24 32 45 0 12 5 18 10 15 6 -3 10 2 10 12 0 10 9 25 20 33 11 8 20 22 20 32 0
10 6 17 12 16 7 -2 14 7 16 20 2 12 7 20 12 17 4 -3 16 12 25 33 24 52 44 67
61 44 8 -11 9 -19 2 -23z m-758 -27 c5 -20 10 -50 10 -67 -1 -29 -1 -29 -16
-10 -8 11 -20 19 -25 18 -11 -3 -12 11 -2 21 4 4 6 25 4 48 -3 49 14 44 29
-10z m290 -54 c-6 -21 -14 -38 -18 -38 -10 0 1 97 14 125 14 32 18 -42 4 -87z
m-241 20 c1 -27 -18 -22 -25 6 -8 32 6 58 17 30 4 -10 8 -27 8 -36z m757 6
c-5 -51 -13 -51 -17 -1 -3 32 -1 43 8 40 7 -3 11 -19 9 -39z m-702 14 c12 20
26 13 26 -13 0 -26 -14 -34 -24 -12 -5 10 -7 10 -12 0 -13 -29 -39 2 -28 32 6
14 8 13 19 -1 8 -12 14 -14 19 -6z m146 10 c0 -25 -12 -58 -21 -58 -10 0 -12
31 -3 54 7 19 24 21 24 4z m-99 -41 c-8 -8 -11 -5 -11 9 0 27 14 41 18 19 2
-9 -1 -22 -7 -28z m52 6 c-3 -9 -9 -11 -15 -5 -5 5 -6 17 -2 26 5 13 9 14 14
5 5 -7 6 -19 3 -26z m-713 -73 c-11 -20 -31 -26 -43 -13 -11 10 13 33 35 33
16 0 17 -3 8 -20z m1339 -19 c8 -14 7 -20 -4 -25 -15 -5 -39 26 -28 38 11 11
22 7 32 -13z m-1344 -36 c11 -13 39 -31 63 -39 57 -21 126 -71 156 -115 29
-41 70 -131 63 -137 -2 -2 -12 16 -21 41 -10 25 -22 43 -27 40 -5 -4 -6 2 -2
11 4 11 3 15 -5 10 -6 -3 -14 -1 -18 5 -4 8 -3 9 4 5 7 -4 12 -3 12 2 0 22
-104 102 -157 122 -31 11 -67 30 -81 40 -30 24 -45 25 -62 5 -10 -12 -10 -21
-1 -42 l12 -27 -27 27 c-15 15 -33 27 -40 27 -26 0 -14 15 29 37 48 25 73 22
102 -12z m122 4 c28 -14 45 -29 49 -45 4 -14 4 -27 2 -30 -3 -2 -29 6 -59 20
-30 13 -62 26 -73 30 -18 6 -18 7 -1 26 23 25 29 25 82 -1z m83 -10 c0 -11 -4
-18 -10 -14 -5 3 -7 12 -3 20 7 21 13 19 13 -6z m449 -121 c1 -69 16 -83 27
-25 8 40 9 55 13 105 0 12 7 22 15 22 8 0 16 8 18 18 3 9 5 -46 5 -122 1 -153
-5 -176 -49 -176 -27 0 -33 4 -64 45 -15 20 -15 19 -10 -4 4 -18 2 -21 -7 -12
-17 17 -18 271 -2 265 7 -3 18 3 26 12 13 15 15 13 21 -27 3 -24 7 -70 7 -101z
m752 110 c22 -12 39 -24 39 -27 0 -3 -11 -11 -25 -18 -22 -10 -25 -9 -25 8 0
29 -46 36 -73 11 -12 -11 -47 -31 -77 -46 -66 -30 -99 -62 -139 -136 -17 -30
-31 -50 -31 -45 0 6 13 33 30 61 36 63 112 131 163 144 20 6 37 14 37 18 0 13
40 52 52 52 5 0 28 -10 49 -22z m-129 -4 c17 -16 15 -19 -45 -49 -34 -17 -66
-28 -71 -24 -15 13 12 55 47 72 41 20 47 20 69 1z m-1292 -20 c0 -9 -5 -12
-12 -8 -8 5 -9 1 -4 -12 5 -14 4 -16 -4 -8 -12 12 -4 44 11 44 5 0 9 -7 9 -16z
m275 -29 c6 -11 20 -21 32 -23 15 -2 28 -17 39 -42 10 -22 21 -37 26 -34 4 3
8 -5 8 -18 0 -24 33 -61 44 -51 3 4 6 -17 6 -46 0 -29 5 -62 12 -74 10 -20 10
-21 -5 -8 -10 7 -17 20 -17 28 0 23 -32 64 -58 74 -14 5 -22 12 -19 15 8 8
-50 133 -79 172 -14 18 -20 31 -12 30 7 -2 17 -12 23 -23z m-270 -21 c-8 -16
-15 -23 -15 -16 0 17 20 55 26 49 2 -2 -2 -17 -11 -33z m1358 22 c4 -10 1 -13
-9 -9 -15 6 -19 23 -5 23 5 0 11 -7 14 -14z m-1393 -36 c-21 -14 -30 -12 -30
4 0 18 22 27 35 14 6 -6 5 -12 -5 -18z m105 20 c3 -5 2 -10 -4 -10 -6 0 -7 -8
-4 -17 5 -13 2 -15 -11 -10 -14 5 -17 3 -12 -8 3 -9 -3 -19 -14 -25 -18 -10
-20 -7 -20 23 0 18 5 38 12 45 15 15 45 16 53 2z m1265 -10 c0 -5 -2 -10 -4
-10 -3 0 -8 5 -11 10 -3 6 -1 10 4 10 6 0 11 -4 11 -10z m-1407 -20 c3 -11 1
-23 -4 -26 -5 -3 -9 6 -9 20 0 31 6 34 13 6z m230 -24 c27 -25 27 -27 11 -51
-9 -14 -18 -25 -20 -25 -12 0 -63 91 -58 104 7 18 25 11 67 -28z m1161 18 c3
-9 6 -29 6 -45 0 -25 -2 -28 -14 -17 -7 7 -11 19 -8 27 4 11 1 13 -12 8 -14
-5 -17 -3 -12 8 3 8 1 15 -4 15 -6 0 -10 5 -10 10 0 16 47 11 54 -6z m76 -5
c0 -11 -27 -12 -34 0 -3 4 -3 11 0 14 8 8 34 -3 34 -14z m-1410 -25 c0 -16 -4
-23 -11 -18 -6 3 -15 0 -20 -7 -7 -11 -9 -11 -9 3 0 27 11 48 26 48 8 0 14
-10 14 -26z m1270 -1 c0 -9 -12 -32 -27 -51 -25 -33 -27 -34 -40 -17 -19 27
-17 33 18 66 32 30 49 30 49 2z m-671 -25 c0 -28 -2 -30 -9 -13 -12 28 -12 45
0 45 6 0 10 -15 9 -32z m795 -8 c3 -14 3 -19 0 -12 -3 6 -10 10 -15 6 -5 -3
-9 7 -9 22 0 32 15 22 24 -16z m-1278 -10 l27 -41 -34 -29 c-19 -16 -37 -29
-41 -30 -3 0 -14 23 -24 52 -17 51 -17 52 6 70 31 25 36 23 66 -22z m674 9 c0
-11 -4 -17 -10 -14 -5 3 -10 13 -10 21 0 8 5 14 10 14 6 0 10 -9 10 -21z m567
-31 c-2 -13 -4 -5 -4 17 -1 22 1 32 4 23 2 -10 2 -28 0 -40z m-1381 -18 c8 0
19 10 24 23 8 17 9 18 7 3 -1 -10 -10 -24 -20 -30 -15 -9 -21 -7 -34 9 l-16
20 8 -20 c3 -11 9 -35 12 -54 6 -32 5 -33 -16 -22 -24 13 -27 39 -9 88 l13 34
8 -25 c5 -14 15 -26 23 -26z m1347 32 c13 -14 15 -25 7 -53 -18 -60 -24 -65
-59 -40 -37 27 -38 31 -8 76 25 39 37 43 60 17z m-1107 -9 c1 -10 5 -43 9 -73
l7 -55 -25 49 c-24 45 -25 50 -10 72 18 29 19 29 19 7z m-226 3 c0 -3 -4 -8
-10 -11 -5 -3 -10 -1 -10 4 0 6 5 11 10 11 6 0 10 -2 10 -4z m613 -36 c3 -14
1 -20 -6 -17 -7 2 -14 14 -15 26 -4 28 13 20 21 -9z m197 -5 c0 -14 -4 -25
-10 -25 -5 0 -10 11 -10 25 0 14 5 25 10 25 6 0 10 -11 10 -25z m379 -67 l-20
-43 5 49 c3 27 6 58 6 70 1 19 2 18 15 -6 13 -24 13 -31 -6 -70z m-1153 10
c-41 -27 -72 24 -33 54 21 17 22 16 33 -15 8 -23 8 -34 0 -39z m1364 61 c0 -5
-5 -7 -12 -3 -7 4 -8 3 -4 -5 6 -9 11 -9 22 0 12 10 13 9 8 -5 -3 -9 -12 -16
-19 -16 -14 0 -27 25 -18 34 10 10 23 7 23 -5z m36 -75 c-3 -8 -10 -14 -16
-14 -14 0 -13 46 3 71 11 19 12 18 15 -12 2 -17 1 -37 -2 -45z m-1224 -18 c11
-27 10 -31 -22 -57 -18 -16 -37 -26 -42 -23 -4 3 -20 26 -35 51 -22 39 -24 47
-11 54 8 4 26 17 39 28 l24 20 17 -22 c10 -12 23 -35 30 -51z m1180 18 c-4
-20 -9 -23 -26 -18 -28 9 -28 7 -15 43 10 30 13 31 29 16 11 -10 15 -25 12
-41z m-285 14 c-3 -8 -6 -5 -6 6 -1 11 2 17 5 13 3 -3 4 -12 1 -19z m161 -17
l33 -28 -22 -47 c-13 -25 -28 -46 -35 -46 -6 0 -23 11 -37 24 l-26 24 22 51
c12 28 24 50 27 50 3 0 20 -13 38 -28z m-936 -6 c3 -13 1 -22 -3 -19 -9 5 -13
44 -5 44 2 0 6 -11 8 -25z m283 -5 c17 -32 20 -60 7 -60 -8 0 -32 65 -32 84 0
14 10 4 25 -24z m185 -19 c-11 -40 -30 -56 -30 -26 0 20 30 79 36 72 3 -3 0
-23 -6 -46z m-138 -24 c-3 -11 -8 -15 -14 -9 -5 5 -6 22 -2 38 6 25 8 26 14 9
4 -11 5 -28 2 -38z m435 31 c-3 -8 -6 -5 -6 6 -1 11 2 17 5 13 3 -3 4 -12 1
-19z m-1113 -13 c6 -11 21 -37 33 -57 18 -29 20 -38 9 -38 -8 0 -22 7 -31 16
-15 16 -55 87 -55 99 0 14 34 -1 44 -20z m109 -26 c16 -28 27 -53 24 -55 -2
-3 -17 -6 -32 -7 -23 -2 -31 5 -55 50 -24 45 -26 52 -11 56 37 10 47 5 74 -44z
m187 26 c-8 -9 -10 -28 -6 -48 4 -23 3 -28 -4 -17 -13 21 -12 54 2 68 17 17
23 15 8 -3z m470 -9 c0 -21 -4 -24 -30 -21 -23 3 -30 0 -30 -12 0 -12 -3 -14
-11 -6 -6 6 -8 21 -4 33 5 17 10 19 21 9 11 -9 14 -9 14 1 0 10 3 10 15 0 12
-10 15 -10 15 4 0 9 2 16 5 16 3 0 5 -11 5 -24z m624 -4 c2 -4 -8 -30 -23 -57
-20 -38 -31 -49 -46 -47 -30 6 -30 8 -5 62 18 38 29 50 46 50 13 0 25 -4 28
-8z m56 -2 c0 -35 -61 -122 -76 -108 -7 7 52 118 64 118 6 0 12 -4 12 -10z
m-842 -141 c29 -26 39 -29 97 -28 48 1 71 6 90 21 13 10 34 21 45 23 16 3 20
-1 20 -26 0 -19 -5 -29 -15 -29 -8 0 -19 -10 -26 -21 -7 -15 -13 -18 -18 -10
-5 8 -15 4 -32 -12 -13 -13 -34 -29 -46 -36 -13 -6 -23 -21 -23 -31 0 -35 -19
-21 -41 30 -12 27 -25 47 -30 44 -5 -3 -9 0 -9 6 0 6 -4 9 -9 5 -5 -3 -12 -1
-16 5 -4 6 -10 8 -14 5 -14 -8 -38 27 -60 85 -12 30 -21 60 -21 65 1 11 28
-46 40 -85 6 -18 9 -20 9 -7 1 10 4 16 9 14 4 -3 6 25 5 61 l-1 67 7 -58 c5
-49 12 -64 39 -88z m-358 87 c0 -8 -5 -27 -11 -43 l-11 -28 -19 23 c-19 24
-19 24 4 43 27 22 37 24 37 5z m974 -29 l27 -24 -20 -24 c-11 -13 -21 -19 -21
-14 0 6 -4 27 -9 48 -5 20 -8 37 -7 37 2 0 15 -10 30 -23z m-1034 -34 l22 -28
-22 -3 c-22 -4 -70 22 -70 37 0 8 15 15 42 20 4 0 16 -11 28 -26z m-101 3 c15
-8 34 -22 42 -32 13 -15 12 -16 -11 -9 -29 9 -69 37 -70 48 0 10 7 9 39 -7z
m651 -6 c8 -1 -5 -6 -30 -10 -45 -8 -80 -5 -80 8 0 7 76 8 110 2z m-450 -3 c0
-2 -10 -12 -22 -23 l-23 -19 19 23 c18 21 26 27 26 19z m1010 -7 c12 -7 12
-12 -4 -29 -21 -23 -56 -28 -56 -9 0 12 29 48 39 48 3 0 13 -4 21 -10z m55
-25 c-35 -29 -66 -35 -44 -9 13 16 44 32 64 33 6 1 -3 -10 -20 -24z m-1175
-30 c14 -8 21 -14 15 -14 -5 0 -21 6 -35 14 -14 8 -20 14 -15 14 6 0 21 -6 35
-14z m420 -30 c7 -9 8 -15 2 -15 -5 0 -12 7 -16 15 -3 8 -4 15 -2 15 2 0 9 -7
16 -15z m674 0 c-10 -8 -23 -15 -28 -15 -6 0 -1 7 10 15 10 8 23 15 28 15 6 0
1 -7 -10 -15z m-389 -15 c3 -5 11 -10 16 -10 6 0 7 5 4 10 -9 15 7 12 32 -5
12 -8 24 -28 28 -43 7 -33 -9 -81 -27 -86 -7 -2 -28 -8 -46 -14 -39 -13 -88 0
-114 30 -27 31 -22 44 27 72 25 15 45 33 45 41 0 17 26 20 35 5z m-263 -50
c29 -27 57 -50 63 -50 27 -1 -41 -40 -70 -40 -29 0 -78 27 -97 55 -14 19 -8
64 10 74 29 17 40 13 94 -39z m128 6 c0 -2 -8 -10 -17 -17 -16 -13 -17 -12 -4
4 13 16 21 21 21 13z m-335 -30 c59 -25 71 -73 28 -115 -23 -22 -37 -26 -83
-26 -78 1 -90 8 -90 51 0 28 8 44 34 70 37 37 59 41 111 20z m-485 -35 c0 -14
-18 -23 -30 -16 -6 4 -8 11 -5 16 8 12 35 12 35 0z m114 2 c4 -4 -8 -20 -26
-36 l-33 -29 33 22 34 22 33 -32 33 -32 -19 -32 c-10 -17 -19 -44 -19 -61 1
-25 2 -27 11 -12 6 9 15 15 20 11 6 -4 4 -13 -6 -24 -11 -12 -13 -20 -6 -25
11 -6 -96 -112 -110 -108 -3 1 -6 -3 -5 -10 0 -7 -32 -43 -72 -81 l-73 -69
-32 31 c-18 17 -50 37 -72 44 -32 10 -42 20 -51 46 -6 19 -27 49 -47 67 -20
19 -37 38 -37 42 0 5 39 47 88 93 160 156 182 175 190 164 4 -6 17 -16 30 -23
26 -14 82 -1 102 25 14 16 23 18 34 7z m1070 -13 c43 -16 66 -47 66 -88 0 -36
-3 -40 -40 -57 -35 -16 -46 -16 -81 -6 -22 7 -49 21 -59 31 -17 17 -18 23 -6
56 8 25 24 43 47 56 39 21 40 21 73 8z m338 -15 c0 -5 -5 -11 -11 -13 -6 -2
-11 4 -11 13 0 9 5 15 11 13 6 -2 11 -8 11 -13z m84 -62 c27 -37 70 -98 97
-136 l47 -68 -30 -44 c-16 -24 -30 -53 -30 -65 0 -21 -41 -70 -58 -70 -5 0
-22 -20 -38 -45 -15 -25 -31 -45 -34 -45 -3 0 -33 36 -66 80 -32 44 -78 105
-102 137 -28 37 -39 60 -33 66 7 7 5 14 -6 22 -9 7 -13 17 -9 23 10 17 24 15
29 -5 3 -14 6 -11 11 10 6 18 3 41 -8 68 l-16 40 37 44 c38 44 56 54 68 35 10
-16 62 -12 69 5 9 25 21 17 72 -52z m-743 6 c39 -14 49 -29 20 -29 -12 0 -14
-3 -6 -11 7 -7 21 -6 48 5 21 9 40 14 43 11 3 -3 0 -5 -6 -5 -7 0 -12 -6 -12
-14 0 -8 -8 -17 -17 -19 -15 -4 -15 -6 5 -12 12 -4 22 -15 22 -26 0 -11 5 -19
12 -19 6 0 9 -2 6 -5 -3 -3 -27 4 -53 15 -30 13 -52 17 -58 11 -5 -5 -1 -12
12 -16 12 -3 21 -10 21 -14 0 -15 -109 -43 -147 -38 -62 9 -135 27 -152 38
-12 8 -11 9 7 4 13 -4 35 -3 50 1 23 7 17 9 -33 14 -33 3 -69 1 -80 -4 -16 -6
-17 -6 -8 4 7 7 8 22 3 39 -7 25 -6 27 19 23 14 -2 35 4 46 12 23 18 8 21 -30
6 -17 -7 -24 -7 -20 0 3 6 12 10 20 10 8 0 18 6 22 14 7 13 16 13 66 -1 56
-16 59 -16 100 5 23 12 47 20 52 18 6 -2 27 -9 48 -17z m138 -112 c-10 -9 -11
-8 -5 6 3 10 9 15 12 12 3 -3 0 -11 -7 -18z m-411 -199 c0 -31 -204 -287 -218
-273 -3 2 8 21 24 42 16 21 34 45 39 54 6 9 36 51 68 94 32 42 61 83 64 91 6
15 23 10 23 -8z m505 -70 c96 -125 147 -198 138 -198 -23 0 -223 247 -223 274
0 29 14 16 85 -76z m-38 -76 c47 -74 95 -164 89 -169 -8 -8 -89 108 -142 201
-36 64 -49 95 -42 103 7 9 16 0 34 -33 13 -24 40 -70 61 -102z m-452 46 c-45
-86 -137 -229 -144 -223 -5 6 49 126 63 141 6 6 31 47 55 93 29 53 48 78 54
72 7 -7 -3 -35 -28 -83z m91 36 c-16 -62 -150 -313 -162 -301 -3 2 6 29 20 58
104 220 132 276 139 272 5 -3 6 -16 3 -29z m224 26 c0 -17 83 -180 92 -180 4
0 8 -7 8 -15 0 -9 12 -38 26 -66 14 -28 22 -54 19 -57 -4 -4 -11 0 -15 8 -5 8
-21 33 -35 55 -41 66 -125 246 -119 256 7 12 24 11 24 -1z m-35 -110 c21 -52
42 -96 46 -98 5 -2 9 -12 9 -22 0 -10 9 -40 20 -66 11 -26 19 -52 17 -58 -5
-14 -71 111 -103 194 -13 36 -31 79 -39 96 -10 23 -11 34 -2 43 6 6 12 10 13
8 1 -1 19 -45 39 -97z m-101 80 c9 0 15 -27 20 -87 4 -49 11 -126 15 -173 9
-85 -2 -137 -14 -64 -3 22 -10 62 -15 89 -5 28 -13 91 -17 140 l-8 90 -24 -70
c-28 -85 -109 -260 -117 -253 -6 7 30 121 50 158 7 14 26 60 41 103 20 57 32
76 42 72 8 -3 20 -5 27 -5z m-997 -388 c133 -133 243 -211 391 -277 194 -87
375 -125 598 -125 373 0 705 130 962 378 l62 60 163 -105 c320 -207 367 -238
367 -245 0 -16 -192 -207 -278 -275 -257 -205 -569 -345 -902 -405 -181 -32
-456 -36 -640 -9 -367 53 -704 196 -975 414 -93 75 -249 234 -318 324 l-48 63
73 47 c40 26 151 98 247 160 96 62 175 113 177 113 1 0 56 -53 121 -118z"/>
<path d="M1895 5553 c-455 -28 -889 -183 -1233 -440 -109 -81 -261 -231 -354
-347 -65 -81 -77 -101 -66 -111 27 -25 340 -257 342 -253 1 1 27 38 56 81 67
99 234 259 353 338 79 53 93 66 100 97 8 40 8 41 -24 47 -29 6 -40 18 -74 81
l-27 52 24 36 c19 30 29 36 60 36 24 0 40 6 46 16 5 9 14 14 21 10 17 -11 13
-36 -5 -36 -13 0 -11 -9 11 -47 24 -42 43 -63 92 -103 7 -6 10 -17 7 -25 -5
-12 -14 -10 -54 10 l-48 24 -6 -22 c-3 -12 -6 -30 -6 -40 0 -16 2 -16 30 -2
38 20 74 20 66 0 -7 -19 -3 -19 42 4 106 53 315 112 488 137 144 20 406 20
552 -1 492 -70 922 -325 1137 -674 25 -39 42 -58 49 -53 11 9 344 280 360 293
21 18 -192 262 -327 376 -434 364 -1025 553 -1612 516z m173 -149 c6 3 10 -30
11 -82 l2 -88 -37 -17 c-34 -16 -39 -17 -78 -2 l-41 16 3 72 c3 58 7 75 24 88
20 15 20 16 -6 32 -16 11 -26 27 -26 42 0 25 1 24 69 -21 38 -25 74 -43 79
-40z m185 -11 c37 -17 39 -20 33 -53 -3 -19 -6 -54 -6 -77 0 -40 -3 -44 -36
-58 -34 -14 -40 -14 -74 2 l-38 18 5 55 c7 86 11 98 41 113 36 19 30 19 75 0z
m-823 -29 c56 -20 74 -23 86 -13 11 9 14 7 14 -12 0 -14 8 -54 18 -91 l19 -66
-29 -26 c-25 -22 -36 -25 -74 -19 -35 4 -44 10 -44 25 0 11 -7 45 -16 75 -15
52 -15 57 0 65 24 13 20 25 -11 33 -29 7 -43 21 -43 43 0 16 -3 16 80 -14z
m305 -24 c1 -73 14 -120 33 -120 14 0 13 -4 -6 -22 l-23 -23 -18 22 -18 22
-29 -30 -29 -30 -22 26 c-27 31 -28 49 -8 89 9 16 13 36 10 44 -4 12 -3 13 10
2 12 -10 13 -16 4 -26 -24 -30 19 -106 47 -83 23 19 18 68 -8 79 -18 7 -19 9
-5 9 11 1 17 9 17 26 0 20 -5 25 -24 25 -13 0 -32 3 -42 7 -13 5 -15 3 -9 -7
5 -9 4 -11 -3 -6 -18 11 -14 26 7 26 11 0 22 4 25 9 3 5 25 8 48 7 l43 -1 0
-45z m795 36 c0 -7 -18 -29 -40 -49 -40 -34 -40 -35 -18 -49 19 -13 21 -19 12
-57 -8 -37 -14 -45 -45 -55 -30 -11 -40 -10 -55 1 -11 8 -31 13 -46 10 -37 -5
-35 5 8 38 l35 27 -19 22 c-24 25 -19 85 7 93 9 2 24 9 34 14 12 6 26 5 47 -6
42 -22 64 -20 57 5 -3 13 0 20 9 20 8 0 14 -6 14 -14z m280 -13 c14 -10 36
-23 50 -29 24 -10 24 -11 4 -18 -23 -7 -34 -25 -65 -109 -12 -34 -31 -64 -45
-74 -33 -21 -23 -28 14 -9 34 18 54 46 72 101 22 72 36 85 83 84 32 -1 37 -3
18 -8 -28 -8 -34 -16 -61 -93 -19 -51 -26 -59 -71 -81 l-50 -25 30 -7 c17 -4
45 -20 62 -36 17 -16 36 -29 43 -29 6 0 4 -5 -4 -10 -25 -16 -54 -11 -68 11
-18 29 -88 58 -142 60 -38 1 -41 2 -19 8 49 16 69 31 69 56 0 13 -8 29 -17 34
-15 9 -15 10 -3 11 9 0 21 -5 28 -12 9 -9 12 -6 12 13 0 17 -8 30 -22 38 -21
11 -21 11 9 7 25 -4 33 -1 38 14 3 11 17 28 29 38 l24 18 -40 23 c-31 18 -42
20 -54 10 -17 -14 -19 2 -2 19 17 17 50 15 78 -5z m-1466 -198 c8 -24 21 -39
30 -39 12 1 12 -3 4 -22 -13 -28 -30 -31 -48 -8 -12 13 -16 11 -33 -16 -23
-36 -42 -36 -69 1 -17 22 -18 32 -9 65 9 34 8 41 -11 61 l-22 23 25 18 c13 9
40 19 59 22 33 5 36 3 47 -30 6 -19 18 -53 27 -75z m-504 -42 c-1 -24 -2 -26
-11 -10 -5 9 -7 22 -4 27 10 17 15 11 15 -17z m2279 -38 l23 -34 -39 -63 c-35
-55 -44 -63 -73 -65 -26 -1 -39 6 -65 34 l-33 36 45 63 c41 59 47 64 81 64 31
0 41 -6 61 -35z m171 -15 c10 0 22 -4 25 -10 3 -5 -1 -10 -9 -10 -8 0 -29 -17
-46 -37 l-31 -38 43 -5 c60 -7 60 -30 2 -108 -38 -51 -51 -62 -68 -58 -12 3
-29 6 -38 6 -10 0 -26 17 -38 40 l-21 41 44 52 c69 84 97 124 97 144 1 17 1
17 11 1 5 -10 19 -18 29 -18z m-2400 -23 c0 -19 81 -128 91 -121 11 7 12 -16
1 -34 -14 -21 -41 -2 -82 59 -22 32 -44 61 -50 64 -5 3 -10 15 -10 26 0 14 7
19 25 19 14 0 25 -6 25 -13z m-85 -72 c0 -15 -6 -19 -22 -18 -33 4 -29 -23 12
-79 33 -45 65 -63 65 -36 0 6 2 9 5 6 4 -3 3 -17 -1 -32 -5 -22 -12 -26 -40
-26 -19 0 -34 5 -34 11 0 22 -72 110 -86 105 -15 -6 -17 -1 -8 31 5 18 11 22
30 17 19 -5 24 -1 30 21 5 19 12 25 28 23 13 -2 21 -10 21 -23z m-226 -69 c7
-8 15 -30 18 -49 5 -33 7 -35 37 -30 26 4 37 -1 65 -30 l33 -36 -21 -43 c-11
-25 -21 -52 -21 -61 0 -9 -15 -24 -32 -33 -52 -26 -88 -65 -88 -95 0 -15 7
-29 16 -33 8 -3 12 -11 8 -17 -12 -19 -34 14 -38 58 -2 23 -7 46 -11 52 -11
19 -33 12 -38 -11 -3 -21 -4 -22 -12 -4 -5 11 -4 26 3 36 13 21 6 30 -23 30
-13 0 -26 -9 -33 -22 l-11 -23 0 23 c-1 13 4 32 9 43 8 14 6 25 -6 44 -10 16
-14 34 -10 50 6 24 4 24 -33 -11 -24 -23 -37 -43 -33 -52 3 -10 1 -13 -6 -8
-7 4 -12 20 -12 35 0 22 9 35 41 56 22 16 47 40 55 54 14 25 14 24 8 -21 -6
-46 -5 -48 44 -100 27 -29 59 -69 71 -88 l21 -35 0 34 c0 27 -11 45 -55 93
-30 32 -56 67 -56 76 -2 33 3 57 22 94 16 31 25 38 48 38 16 0 34 -6 40 -14z
m2843 -46 c15 0 49 -56 48 -79 0 -3 -22 -30 -48 -59 -45 -52 -49 -53 -85 -47
-31 6 -41 14 -57 48 l-20 41 52 54 c39 39 58 52 73 48 11 -3 28 -6 37 -6z
m139 -150 c8 0 23 -16 32 -35 17 -36 34 -44 55 -23 6 6 15 9 19 5 13 -14 -16
-30 -64 -34 -48 -5 -49 -6 -46 -37 2 -24 -3 -36 -25 -53 -25 -19 -32 -20 -65
-10 -24 8 -38 19 -42 34 -3 12 -18 29 -33 37 l-27 14 51 7 c47 7 50 9 46 32
-6 32 34 76 63 69 11 -3 27 -6 36 -6z"/>
<path d="M1979 5386 c-2 -2 -3 -33 -1 -69 3 -57 6 -66 28 -76 14 -6 26 -11 27
-11 1 0 1 30 -1 67 -2 48 -8 72 -20 81 -17 13 -26 15 -33 8z"/>
<path d="M2186 5342 c-12 -73 -8 -98 18 -110 13 -6 27 -8 30 -5 3 4 6 34 6 68
0 55 -2 63 -24 73 -22 10 -24 8 -30 -26z"/>
<path d="M1430 5303 c0 -5 8 -35 18 -68 16 -52 22 -60 45 -63 15 -2 27 2 27 8
0 31 -24 107 -38 118 -17 13 -52 17 -52 5z"/>
<path d="M2394 5325 c-11 -45 19 -60 50 -26 16 18 16 20 -13 34 -30 15 -31 15
-37 -8z"/>
<path d="M2385 5240 c-26 -27 -27 -30 -9 -30 11 0 29 -7 41 -15 20 -14 21 -13
25 15 3 20 -1 35 -12 45 -15 13 -19 12 -45 -15z"/>
<path d="M1220 5207 c18 -16 24 -30 22 -50 -6 -47 47 -90 62 -51 9 24 7 41 -6
56 -7 7 -13 19 -14 26 -1 6 -2 19 -2 27 -2 11 -14 15 -44 15 l-43 -1 25 -22z"/>
<path d="M3020 5045 c-31 -54 -31 -57 -15 -81 l17 -26 35 57 c32 51 34 59 23
81 -8 13 -17 24 -21 24 -4 0 -22 -25 -39 -55z"/>
<path d="M3190 4919 c-29 -37 -31 -43 -20 -65 8 -13 16 -24 20 -24 11 0 80 99
80 115 0 31 -46 16 -80 -26z"/>
<path d="M504 4872 c-34 -23 -10 -77 66 -146 29 -26 32 -34 27 -69 l-6 -40 32
31 31 32 -59 62 c-33 34 -50 54 -37 44 l22 -19 0 40 c0 55 -40 90 -76 65z"/>
<path d="M590 4775 c0 -29 12 -32 34 -9 23 22 20 34 -9 34 -20 0 -25 -5 -25
-25z"/>
<path d="M631 4756 c-16 -17 -19 -26 -11 -31 17 -10 57 32 44 45 -7 7 -17 3
-33 -14z"/>
<path d="M659 4731 c-23 -19 -23 -20 -6 -38 18 -17 19 -17 33 1 30 41 10 67
-27 37z"/>
<path d="M3352 4794 c-26 -30 -38 -53 -35 -65 10 -36 26 -32 68 17 37 42 41
52 32 71 -6 13 -14 23 -18 23 -4 0 -25 -21 -47 -46z"/>
<path d="M3519 4673 c-8 -9 -14 -26 -14 -37 0 -16 -8 -22 -36 -26 l-35 -5 22
-32 21 -32 23 24 c12 13 19 29 15 35 -9 15 12 30 42 30 22 0 22 1 5 30 -20 35
-25 36 -43 13z"/>
<path d="M1033 5068 c56 -100 110 -87 60 15 -21 43 -26 47 -59 47 l-36 0 35
-62z"/>
<path d="M1129 4909 l-24 -20 30 17 c39 24 40 24 28 24 -6 0 -21 -9 -34 -21z"/>
<path d="M3184 4165 c11 -8 25 -15 30 -15 6 0 2 7 -8 15 -11 8 -25 15 -30 15
-6 0 -2 -7 8 -15z"/>
<path d="M3620 3761 c0 -5 5 -13 10 -16 6 -3 10 -2 10 4 0 5 -4 13 -10 16 -5
3 -10 2 -10 -4z"/>
<path d="M647 3909 c-42 -39 -82 -80 -88 -91 -6 -11 30 20 80 68 84 81 96 94
89 94 -2 0 -38 -32 -81 -71z"/>
<path d="M784 3966 c-41 -18 -74 -73 -74 -122 0 -103 116 -176 198 -125 96 61
95 198 -2 242 -48 22 -80 23 -122 5z m166 -86 c7 -47 -2 -53 -20 -15 -10 21
-16 43 -13 48 7 11 31 -13 33 -33z m-52 -10 c11 -19 11 -32 3 -52 -9 -23 -17
-28 -45 -28 -25 0 -39 7 -50 22 -21 30 -20 44 5 69 27 27 69 22 87 -11z m-68
-107 c13 -11 11 -12 -9 -10 -27 4 -51 32 -51 60 0 17 3 15 22 -9 13 -16 29
-35 38 -41z"/>
<path d="M806 3585 c-14 -13 -26 -27 -26 -31 0 -4 10 2 23 14 25 24 37 20 37
-12 0 -14 3 -17 10 -10 10 10 -2 64 -13 64 -2 0 -16 -11 -31 -25z"/>
<path d="M3261 3922 c-39 -21 -71 -73 -71 -115 0 -70 58 -135 128 -144 73 -8
142 63 142 148 0 101 -107 160 -199 111z m-12 -82 c-12 -22 -23 -40 -25 -40
-8 0 4 61 16 75 23 28 29 4 9 -35z m113 3 c34 -31 17 -85 -31 -96 -32 -8 -75
34 -66 66 14 46 63 61 97 30z m33 -85 c-5 -26 -13 -34 -42 -43 -14 -4 -23 -2
-23 4 0 6 4 11 9 11 5 0 19 11 32 25 29 30 29 30 24 3z"/>
<path d="M3303 3536 l-1 -31 10 26 11 27 24 -27 c21 -22 23 -23 14 -4 -23 46
-57 51 -58 9z"/>
<path d="M1960 3751 c0 -7 -4 -9 -10 -6 -5 3 -10 1 -10 -5 0 -6 -5 -8 -12 -3
-19 11 -38 13 -38 3 0 -5 5 -12 10 -15 18 -11 11 -35 -10 -35 -16 0 -20 -7
-20 -32 0 -29 -1 -30 -18 -15 -18 16 -19 16 -18 -5 1 -16 -4 -23 -16 -22 -32
3 -22 -42 15 -67 17 -13 38 -31 45 -41 23 -32 30 -19 16 29 -11 37 -12 48 -2
55 16 9 14 9 61 -1 20 -5 39 -5 42 0 9 14 33 -1 43 -29 18 -48 22 -161 5 -177
-13 -13 -13 -15 1 -15 8 0 19 -7 24 -17 9 -15 12 -14 37 5 15 12 22 22 16 22
-20 0 -11 164 10 196 18 29 28 32 40 13 5 -9 12 -10 21 -3 7 5 29 9 48 9 34 0
35 -1 33 -39 -2 -21 -8 -45 -14 -52 -6 -8 -8 -14 -4 -14 11 0 115 91 115 101
0 5 -12 14 -26 19 -21 8 -25 15 -21 33 6 20 5 20 -7 5 -19 -26 -26 -22 -26 12
0 23 -4 30 -20 30 -21 0 -27 15 -10 25 6 3 10 11 10 17 0 6 -6 6 -15 -2 -13
-11 -14 -10 -10 2 4 11 -1 14 -17 13 -13 -1 -26 3 -30 9 -5 8 -8 7 -8 -1 0 -7
-7 -10 -15 -6 -9 3 -22 -2 -30 -13 -8 -11 -15 -15 -15 -10 0 5 -9 1 -20 -9
-11 -10 -20 -14 -20 -9 0 5 -8 10 -17 10 -30 1 -47 8 -60 24 -6 8 -15 12 -19
8 -4 -4 -13 -3 -21 3 -10 9 -13 8 -13 0z"/>
<path d="M1760 3572 c0 -11 8 -18 20 -19 23 -2 26 7 8 25 -17 17 -28 15 -28
-6z"/>
<path d="M2382 3578 c-17 -17 -15 -28 6 -28 11 0 18 8 19 20 2 23 -7 26 -25 8z"/>
<path d="M1526 3525 c-16 -13 -31 -34 -33 -46 -3 -20 -1 -19 19 7 12 16 29 34
38 41 8 6 13 14 10 16 -3 3 -18 -5 -34 -18z"/>
<path d="M1700 3541 c0 -5 10 -17 22 -25 12 -9 18 -16 13 -16 -6 0 -1 -7 9
-15 19 -15 19 -15 -1 -15 -20 0 -21 -5 -19 -52 4 -60 13 -87 35 -106 10 -9 11
-11 2 -6 -9 5 -12 3 -7 -4 4 -7 14 -12 21 -12 9 0 12 -6 8 -17 -4 -11 -3 -14
5 -9 8 4 15 -1 20 -15 6 -15 11 -19 16 -11 4 7 11 10 16 7 9 -6 41 19 107 81
32 31 43 49 43 72 0 17 6 32 13 35 6 2 8 8 4 13 -5 5 -17 -2 -28 -16 l-19 -25
-23 25 c-38 44 -55 54 -71 41 -16 -13 -55 -2 -75 23 -7 9 -21 16 -30 17 -12 0
-12 2 4 10 19 9 19 9 -2 5 -12 -2 -31 3 -42 11 -12 8 -21 10 -21 4z m128 -139
c5 -33 50 -64 84 -57 35 8 36 -7 2 -34 -21 -16 -30 -18 -50 -9 -13 6 -24 17
-24 24 0 7 -9 18 -19 24 -11 5 -22 23 -26 39 -3 16 -13 35 -21 42 -27 22 -14
31 19 12 17 -10 33 -29 35 -41z m87 7 c6 -19 -9 -49 -26 -49 -14 0 -39 31 -39
50 0 34 55 33 65 -1z"/>
<path d="M1877 3413 c-12 -11 -8 -33 6 -33 7 0 13 9 13 20 0 20 -7 25 -19 13z"/>
<path d="M2455 3541 c-3 -6 -21 -11 -38 -12 -18 0 -26 -3 -19 -6 9 -3 2 -13
-20 -30 -24 -18 -41 -23 -65 -19 -25 4 -39 -2 -71 -30 -40 -34 -41 -34 -55
-14 -19 27 -26 16 -17 -27 8 -31 51 -91 73 -102 5 -2 23 -16 40 -31 18 -15 38
-25 45 -23 6 3 12 -1 12 -8 0 -6 10 1 22 17 13 16 28 35 35 42 7 8 18 22 24
33 5 11 13 17 18 15 4 -3 7 25 6 62 -1 65 -1 67 -25 65 -14 -1 -19 1 -12 3 6
3 12 12 12 20 0 8 6 14 14 14 16 0 42 28 33 36 -3 3 -8 1 -12 -5z m-73 -132
c-61 -113 -105 -135 -151 -76 -13 16 -12 17 18 12 40 -7 81 18 81 50 0 15 11
30 33 44 47 30 50 26 19 -30z m-72 -5 c0 -25 -29 -47 -46 -36 -22 15 -23 41
-2 56 26 19 48 10 48 -20z"/>
<path d="M2274 3400 c0 -11 5 -19 11 -17 5 2 10 10 10 17 0 7 -5 15 -10 17 -6
2 -11 -6 -11 -17z"/>
<path d="M2631 3513 c18 -21 37 -42 41 -47 3 -4 5 0 5 10 -1 11 -13 28 -27 39
-14 11 -26 23 -28 27 -2 5 -9 8 -15 8 -6 0 5 -17 24 -37z"/>
<path d="M1518 3463 c-19 -21 -34 -43 -31 -49 2 -6 -15 -24 -37 -39 -29 -20
-37 -31 -28 -36 7 -5 22 -6 33 -3 12 3 15 2 8 -3 -20 -14 -64 -84 -58 -93 3
-4 -3 -6 -13 -3 -10 2 -24 -2 -30 -10 -11 -12 -6 -13 29 -7 22 4 46 13 52 19
9 9 7 11 -8 5 -16 -5 -13 1 11 27 47 50 58 76 38 87 -13 7 -12 11 10 26 25 16
82 116 67 116 -4 0 -23 -17 -43 -37z"/>
<path d="M2015 3351 c-3 -6 -2 -11 4 -11 6 0 20 -10 32 -22 19 -20 21 -21 17
-4 -4 24 -44 51 -53 37z"/>
<path d="M2110 3340 c-22 -22 -26 -40 -10 -40 6 0 10 6 10 14 0 8 9 18 20 21
11 3 20 11 20 16 0 15 -19 10 -40 -11z"/>
<path d="M1997 3303 c-2 -5 9 -19 26 -33 25 -20 30 -21 24 -7 -4 10 -7 20 -7
22 0 9 -39 25 -43 18z"/>
<path d="M2136 3291 c-10 -11 -16 -26 -14 -33 3 -8 9 -5 17 10 6 12 19 22 27
22 8 0 12 5 9 10 -9 15 -20 12 -39 -9z"/>
<path d="M2785 3045 c-29 -14 -29 -14 -5 -14 42 -1 74 10 58 20 -16 11 -16 11
-53 -6z"/>
<path d="M3160 2835 l0 -205 373 2 372 3 3 203 2 202 -375 0 -375 0 0 -205z
m264 114 l14 -21 31 23 c29 21 32 22 49 5 12 -10 26 -14 37 -10 15 6 17 4 10
-12 -5 -10 -11 -61 -13 -111 -3 -79 -1 -93 12 -93 20 0 20 -9 -1 -32 -19 -21
-38 -23 -50 -5 -4 6 -10 61 -13 121 -3 75 -9 111 -17 114 -9 2 -13 -9 -13 -36
0 -22 5 -42 11 -44 9 -3 9 -9 0 -25 -14 -28 -14 -83 1 -83 13 0 -19 -38 -44
-51 -13 -7 -25 -5 -41 8 -20 15 -23 24 -19 65 4 44 3 48 -17 48 -19 0 -21 -6
-21 -53 0 -70 -14 -88 -80 -98 -30 -5 -56 -7 -58 -5 -9 10 20 46 37 46 30 0
46 27 35 58 -8 21 -16 27 -38 25 -32 -2 -31 17 2 32 12 5 22 18 22 28 0 34 33
75 79 101 56 31 66 32 85 5z m409 5 c31 -7 34 -16 12 -34 -9 -7 -27 -10 -45
-6 l-30 6 0 -100 c0 -55 3 -100 6 -100 4 0 24 10 45 22 50 28 61 16 22 -24
-24 -24 -42 -32 -80 -35 -133 -12 -201 134 -107 231 36 37 60 47 50 21 -4 -12
-2 -13 13 -6 10 6 24 17 31 26 8 10 21 14 34 10 12 -3 33 -8 49 -11z"/>
<path d="M3346 2914 c-13 -34 -7 -64 14 -64 17 0 20 7 20 40 0 41 -21 57 -34
24z"/>
<path d="M3437 2903 c-11 -10 -8 -53 3 -53 6 0 10 14 10 30 0 31 -2 35 -13 23z"/>
<path d="M3314 2805 c0 -49 1 -71 3 -48 2 23 2 64 0 90 -2 26 -3 8 -3 -42z"/>
<path d="M3430 2776 c0 -19 5 -38 10 -41 6 -4 10 10 10 34 0 23 -4 41 -10 41
-5 0 -10 -15 -10 -34z"/>
<path d="M3673 2890 c-15 -23 -17 -79 -3 -100 14 -22 22 7 18 69 -3 46 -4 49
-15 31z"/>
<path d="M3742 2831 c-1 -14 -13 -37 -27 -51 l-25 -26 25 -14 c14 -7 27 -11
31 -8 3 3 3 32 1 64 -2 33 -4 48 -5 35z"/>
<path d="M2085 2530 c-3 -5 -1 -10 4 -10 6 0 11 5 11 10 0 6 -2 10 -4 10 -3 0
-8 -4 -11 -10z"/>
<path d="M1346 2002 c-4 -8 2 -16 19 -22 14 -5 30 -21 37 -35 13 -28 31 -35
21 -7 -9 25 -34 52 -49 52 -7 0 -14 5 -16 12 -3 9 -6 9 -12 0z"/>
<path d="M1261 1959 c-18 -6 -44 -17 -57 -26 -20 -13 -27 -13 -42 -2 -16 12
-16 12 -1 -5 16 -17 18 -17 60 4 86 45 154 24 162 -49 l4 -36 1 36 c3 67 -51
100 -127 78z"/>
<path d="M1223 1909 c-47 -23 -84 -66 -103 -121 -12 -32 -11 -40 4 -62 51 -79
226 30 226 140 0 67 -47 83 -127 43z"/>
<path d="M1110 1838 c-11 -18 -20 -37 -20 -42 0 -12 1 -10 28 37 26 45 19 50
-8 5z"/>
<path d="M1081 1764 c0 -11 3 -14 6 -6 3 7 2 16 -1 19 -3 4 -6 -2 -5 -13z"/>
<path d="M2737 1941 c-10 -27 -12 -28 -24 -13 -11 14 -12 13 -2 -10 14 -33 29
-37 29 -8 0 11 9 29 20 40 17 17 17 20 4 20 -9 0 -21 -13 -27 -29z"/>
<path d="M2780 1932 c-26 -21 -38 -101 -22 -142 8 -20 9 -13 5 30 -7 73 7 107
49 119 23 6 27 9 12 10 -12 1 -32 -7 -44 -17z"/>
<path d="M2797 1892 c-34 -38 -13 -139 40 -194 35 -36 91 -48 110 -23 34 48 4
157 -57 209 -37 30 -70 33 -93 8z"/>
<path d="M2775 1743 c3 -12 1 -33 -6 -45 -11 -21 -11 -22 4 -9 19 15 22 39 6
61 -8 12 -9 10 -4 -7z"/>
<path d="M2830 1666 c0 -3 9 -10 20 -16 11 -6 20 -8 20 -6 0 3 -9 10 -20 16
-11 6 -20 8 -20 6z"/>
<path d="M2897 1629 c7 -7 15 -10 18 -7 3 3 -2 9 -12 12 -14 6 -15 5 -6 -5z"/>
<path d="M2048 1943 c-48 -33 -49 -51 -4 -49 26 1 36 -3 40 -16 4 -19 41 -25
51 -8 3 6 1 10 -4 10 -6 0 -11 4 -11 10 0 5 7 7 15 4 8 -4 15 -1 15 5 0 6 -6
11 -14 11 -9 0 -16 12 -18 27 -4 36 -24 38 -70 6z m32 -13 c0 -16 -7 -20 -32
-20 l-33 0 30 20 c37 24 35 24 35 0z"/>
<path d="M1946 1947 c4 -11 -5 -23 -28 -38 l-33 -21 30 7 c17 3 40 13 53 21
22 15 30 34 13 34 -5 0 -17 3 -25 6 -12 5 -15 2 -10 -9z"/>
<path d="M763 1147 c-111 -73 -203 -136 -203 -141 0 -18 116 -150 212 -240
267 -252 611 -423 988 -491 142 -25 453 -31 606 -11 216 28 398 83 599 180
214 103 370 214 529 374 l78 80 -58 39 c-33 22 -135 88 -227 148 l-168 108
-37 -35 c-188 -176 -408 -292 -672 -355 -155 -36 -409 -43 -575 -15 -324 56
-622 216 -815 439 -25 28 -47 51 -50 51 -3 0 -96 -59 -207 -131z m387 -174
c14 -9 29 -23 33 -30 4 -7 25 -22 45 -33 l37 -19 -46 -1 c-52 0 -58 -4 -124
-84 -27 -32 -59 -62 -70 -66 -17 -7 -15 -9 11 -9 36 -1 53 12 113 87 38 46 47
52 80 52 71 0 131 -31 131 -67 0 -26 -39 -53 -77 -53 -34 0 -35 -1 -20 -18 25
-28 21 -55 -15 -95 l-33 -37 -49 15 c-27 8 -58 15 -69 15 -11 0 -37 20 -59 45
-46 53 -102 70 -124 40 -8 -10 -17 -16 -20 -12 -13 13 17 35 57 40 51 7 74 24
58 44 -7 8 -18 12 -26 9 -7 -3 -13 -1 -13 5 0 6 16 9 38 7 32 -3 37 0 40 19 3
22 -29 49 -42 36 -3 -3 -6 -1 -6 5 0 16 53 15 68 0 9 -9 17 -7 34 9 13 12 39
23 58 25 35 4 35 4 10 15 -14 6 -34 20 -44 32 -12 13 -26 19 -38 15 -26 -8
-22 5 5 16 30 12 29 12 57 -7z m1862 -35 c-21 -21 -13 -43 34 -98 44 -52 46
-56 42 -107 -5 -58 0 -63 27 -33 10 11 37 26 59 32 23 7 44 17 48 23 9 12 10
-11 2 -41 -4 -16 -16 -23 -45 -27 -46 -6 -102 -46 -130 -90 l-19 -32 6 52 c6
45 4 52 -15 63 -17 9 -26 9 -37 -1 -8 -6 -14 -7 -14 -1 0 5 7 15 15 22 8 7 12
16 9 21 -9 15 -42 10 -53 -8 -10 -17 -10 -17 -11 -1 0 9 8 21 17 26 16 9 16
11 0 36 -9 14 -17 37 -17 52 0 25 -2 26 -17 12 -10 -8 -31 -20 -47 -26 -21 -9
-27 -18 -23 -32 7 -26 1 -25 -13 1 -15 27 9 64 47 74 15 3 38 16 51 28 l24 22
-7 -26 c-5 -21 3 -38 49 -95 42 -52 56 -77 56 -101 0 -18 5 -33 10 -33 16 0
11 84 -7 110 -9 14 -31 42 -50 63 -20 22 -33 48 -33 64 0 27 25 63 44 63 6 0
5 -5 -2 -12z m-250 -150 c-21 -21 -13 -47 38 -127 58 -90 65 -134 26 -170 -13
-12 -41 -24 -62 -27 -73 -10 -85 -15 -94 -37 l-9 -22 0 23 c-1 23 27 57 65 78
18 11 18 13 2 47 -21 43 -52 56 -79 31 -17 -15 -19 -15 -19 -1 0 8 11 24 23
34 17 13 22 24 17 38 -4 11 -5 36 -2 55 5 34 5 35 -15 18 -11 -10 -27 -18 -36
-18 -9 0 -25 -10 -37 -22 -14 -16 -20 -18 -20 -7 0 23 29 59 48 59 10 0 33 8
52 18 l35 17 0 -45 c0 -34 9 -59 38 -106 37 -61 46 -97 27 -109 -21 -13 -9
-26 21 -23 58 6 57 25 -5 128 -31 51 -56 103 -56 114 0 25 26 66 43 66 8 0 8
-3 -1 -12z m-1249 -40 c10 -12 15 -28 12 -36 -5 -15 8 -14 79 4 23 5 28 2 40
-27 31 -76 31 -77 -13 -89 l-40 -10 19 -43 c11 -23 20 -62 20 -86 0 -35 3 -42
16 -37 8 3 13 2 10 -3 -3 -5 -18 -12 -32 -15 -35 -9 -44 5 -44 71 0 40 -5 58
-24 80 -28 32 -38 27 -56 -30 -14 -44 0 -72 32 -64 10 3 16 1 13 -3 -3 -5 -19
-11 -35 -15 -23 -5 -37 -1 -65 21 -25 18 -53 29 -93 33 l-57 7 35 11 c19 7 46
13 60 15 35 4 38 40 6 88 l-25 38 50 12 c39 10 50 17 55 36 8 31 -11 54 -45
54 -21 0 -23 2 -11 10 22 15 72 3 93 -22z m483 -99 c41 -19 44 -20 71 -3 l28
18 -22 -25 c-20 -22 -24 -40 -29 -142 -7 -111 -6 -117 12 -117 15 0 13 -4 -11
-20 -32 -21 -55 -13 -55 21 0 24 -5 24 -54 -5 l-42 -24 -39 24 c-50 30 -75 31
-75 3 0 -11 -4 -17 -10 -14 -17 10 -12 23 25 64 l36 39 -26 38 c-30 44 -27 84
9 123 42 46 113 54 182 20z m392 13 c17 14 18 15 -11 -52 l-15 -35 58 0 c48 0
63 -4 84 -24 14 -14 26 -34 26 -45 0 -31 -33 -80 -75 -112 -30 -22 -45 -27
-85 -25 -26 1 -51 -3 -55 -9 -3 -5 -11 -10 -18 -10 -6 0 -2 7 9 15 17 14 14
15 -41 13 -46 -2 -60 -7 -60 -18 0 -11 11 -15 40 -14 35 1 37 0 17 -9 -31 -14
-76 2 -80 29 -4 27 20 46 65 53 53 9 55 31 3 31 -23 0 -50 5 -61 10 -22 12
-25 52 -5 69 8 7 17 25 21 40 3 15 19 43 35 63 29 35 30 35 80 26 39 -7 55 -6
68 4z"/>
<path d="M1222 832 c-15 -15 -44 -47 -64 -70 -29 -34 -43 -42 -71 -42 l-34 0
42 -43 c45 -47 78 -62 95 -42 7 8 4 17 -11 31 -17 15 -23 16 -40 6 -10 -7 -19
-10 -19 -7 0 7 102 135 107 135 7 0 -16 -37 -31 -50 -22 -18 -20 -27 12 -44
17 -10 21 -15 11 -16 -9 0 -22 7 -29 15 -10 12 -16 13 -27 4 -11 -10 -9 -15
14 -29 26 -16 30 -16 46 -1 12 10 17 25 15 43 -4 21 0 29 16 34 51 16 71 58
40 88 -22 23 -42 20 -72 -12z"/>
<path d="M1550 658 c-32 -71 -28 -77 41 -58 l36 10 -16 45 c-9 25 -22 45 -29
45 -7 0 -22 -19 -32 -42z"/>
<path d="M1513 673 c-3 -10 -19 -50 -34 -90 -25 -67 -27 -83 -8 -83 8 0 9 2
50 113 23 62 26 77 13 77 -8 0 -17 -8 -21 -17z"/>
<path d="M1428 663 c-22 -6 -23 -17 -2 -34 13 -10 17 -10 25 2 11 17 12 39 2
38 -5 -1 -16 -3 -25 -6z"/>
<path d="M1839 617 c-42 -28 -50 -78 -18 -116 l20 -25 39 45 c47 53 49 63 10
57 -16 -3 -30 -1 -30 3 0 16 42 30 70 24 37 -8 49 12 15 25 -41 15 -69 12
-106 -13z"/>
<path d="M1926 552 l-55 -57 57 -7 c31 -3 59 -4 61 -2 10 9 12 112 3 118 -5 3
-35 -20 -66 -52z"/>
<path d="M1829 454 c-9 -11 0 -19 44 -40 50 -25 58 -26 86 -14 43 17 42 47 -1
54 -89 13 -118 14 -129 0z"/>
<path d="M2241 617 c-7 -9 -11 -24 -9 -34 6 -35 112 -28 123 8 9 27 6 29 -51
35 -38 5 -53 3 -63 -9z"/>
<path d="M2342 528 c-21 -21 -13 -25 49 -24 49 1 64 -3 73 -17 9 -16 5 -24
-28 -53 -38 -33 -39 -34 -14 -34 29 0 78 50 78 79 0 9 -9 27 -20 39 -16 17
-32 22 -73 22 -29 0 -58 -5 -65 -12z"/>
<path d="M2190 513 c0 -34 121 -36 128 -3 2 12 -11 15 -63 15 -47 1 -65 -3
-65 -12z"/>
<path d="M2360 468 c-25 -5 -51 -17 -58 -26 -11 -15 -9 -18 15 -23 51 -12 73
-9 93 11 38 38 20 52 -50 38z"/>
</g>
</svg>
